<svg width="856" height="645" viewBox="0 0 856 645" fill="none" xmlns="http://www.w3.org/2000/svg">
<path opacity="0.1" d="M490.073 753.139C502.872 747.063 515.652 740.987 528.431 734.871C530.16 734.049 531.849 733.106 533.519 732.164C542.72 726.97 552.022 721.957 561.084 716.522C571.995 709.965 583.006 703.508 593.38 696.148C603.556 688.949 613.135 680.848 622.715 672.827C631.241 665.688 639.747 658.709 650.459 655.08C652.029 654.558 653.421 653.536 654.911 652.713C661.927 648.843 669.499 646.497 677.31 645.334C683.928 644.331 690.685 644.452 697.383 643.95C710.281 642.948 723.219 642.166 736.058 640.662C741.703 640 747.287 638.175 752.673 636.27C761.159 633.242 761.08 618.804 755.376 615.555C751.52 613.369 746.91 611.565 742.577 611.424C734.25 611.143 725.823 611.404 717.694 614.252C714.812 615.274 711.593 615.435 708.512 615.736C707.3 615.856 706.823 614.593 707.698 613.811C711.096 610.803 714.256 607.233 718.171 605.188C731.964 597.949 745.975 591.09 760.027 584.373C771.753 578.758 782.962 572.341 793.296 564.42C798.821 560.209 802.657 554.774 804.565 548.016C806.354 541.66 802.896 537.348 796.456 537.89C795.284 537.99 794.052 538.211 792.958 538.652C788.526 540.477 783.975 542.121 779.762 544.367C767.877 550.664 756.31 557.602 744.266 563.558C732.461 569.413 720.318 574.587 708.135 579.64C701.954 582.207 695.296 583.591 689.016 585.937C682.497 588.383 676.216 591.391 671.089 596.404C669.38 598.069 667.233 599.292 665.405 600.836C658.807 606.431 652.109 611.885 645.749 617.741C638.674 624.238 632.254 631.477 625.02 637.774C611.963 649.124 598.428 659.933 586.186 672.245C583.383 675.053 579.468 676.757 575.93 678.742C575.096 679.204 573.247 679.224 572.79 678.662C572.194 677.94 572.274 676.376 572.552 675.313C572.969 673.689 573.625 672.085 574.46 670.641C578.296 663.943 581.754 656.965 586.206 650.708C594.99 638.335 603.973 626.103 613.533 614.332C620.032 606.331 626.928 598.47 635.454 592.414C641.317 588.263 647.498 584.433 652.864 579.68C659.264 574.005 666.597 570.035 673.871 565.844C675.938 564.641 677.906 563.277 679.893 561.933C682.656 560.048 685.279 557.903 688.161 556.258C702.53 548.037 716.939 539.975 730.235 529.848C741.563 521.206 751.997 511.64 762.531 502.155C768.891 496.42 772.17 489.04 772.13 480.257C772.13 477.61 771.196 475.665 769.308 473.921C763.882 468.927 759.093 468.506 753.309 473.379C746.691 478.934 740.45 484.95 733.971 490.685C727.135 496.741 720.357 502.877 713.242 508.612C710.698 510.658 707.399 511.981 704.259 512.964C700.582 514.107 698.456 512.222 699.191 508.452C701.238 497.784 703.226 487.095 708.353 477.269C713.262 467.844 717.734 458.219 724.233 449.757C725.545 448.052 726.439 446.027 727.572 444.182C732.362 436.361 736.972 428.44 742.02 420.8C744.664 416.809 747.764 413.019 751.163 409.651C757.304 403.554 763.803 397.819 770.182 391.944C783.618 379.571 796.993 367.138 810.488 354.846C818.855 347.245 827.44 339.926 835.867 332.406C840.538 328.235 845.188 324.044 849.64 319.652C853.734 315.602 855.98 310.609 856 304.713C856.02 300.361 853.456 296.371 849.362 295.509C843.896 294.366 838.332 294.105 833.363 297.454C824.638 303.369 815.178 308.282 808.023 316.344C804.346 320.475 800.67 324.646 796.715 328.496C793.475 331.664 789.957 334.552 786.301 337.239C785.188 338.041 783.26 337.72 781.73 337.921C781.849 336.577 781.69 335.093 782.167 333.87C784.393 328.275 786.877 322.781 789.083 317.186C790.593 313.376 792.183 309.546 793.058 305.575C794.012 301.204 791.031 295.027 787.97 293.583C784.273 291.859 779.007 293.002 775.628 296.832C772.786 300.061 770.083 303.55 767.937 307.28C763.763 314.599 760.186 322.259 756.111 329.639C746.671 346.764 737.092 363.789 727.572 380.874C726.399 382.98 725.147 385.045 724.114 387.231C718.628 398.762 712.865 410.192 708.433 422.224C706.187 428.34 702.987 434.115 700.96 440.272C695.196 457.778 686.77 474.121 679.178 490.805C671.447 507.83 660.357 522.81 648.432 537.088C645.352 540.777 641.993 544.267 638.515 547.555C630.207 555.396 620.052 560.53 610.651 566.766C601.052 573.143 591.035 579.059 582.191 586.398C569.571 596.866 558.699 609.198 549.657 623.035C537.394 641.805 525.271 660.674 513.048 679.484C509.769 684.538 506.728 689.812 502.992 694.504C499.434 698.996 495.32 703.087 491.047 706.897C488.881 708.822 485.681 709.323 482.918 707.599C480.454 706.075 481.09 703.367 481.13 701.001C481.15 699.557 481.269 698.094 481.448 696.65C483.157 683.675 486.635 671.182 491.067 658.89C495.916 645.434 502.614 632.861 508.974 620.147C513.286 611.525 517.599 602.801 522.926 594.82C530.816 583.009 539.58 571.779 548.027 560.349C549.16 558.825 550.65 557.542 552.042 556.218C560.091 548.638 568.339 541.239 576.209 533.478C584.794 525.016 593.658 516.934 603.178 509.535C612.519 502.296 620.906 494.074 628.061 484.549C633.546 477.229 639.211 470.01 645.213 463.132C655.388 451.501 664.709 439.409 671.188 425.172C674.189 418.574 677.23 412.117 678.86 404.958C682.119 390.6 685.975 376.383 691.957 362.867C698.655 347.727 708.632 334.692 718.41 321.578C724.75 313.095 732.024 305.315 738.324 296.812C748.857 282.594 761.537 270.402 773.621 257.669C782.882 247.923 793.117 239.119 802.955 229.935C806.115 226.987 809.355 224.1 812.594 221.232C816.728 217.562 821.18 214.214 824.976 210.223C827.917 207.115 830.501 203.485 832.429 199.655C835.47 193.639 832.369 187.463 825.97 185.457C820.067 183.593 814.562 184.635 809.434 187.824C794.926 196.868 780.915 206.573 769.189 219.287C766.088 222.656 762.69 225.724 759.649 229.153C752.474 237.234 744.525 244.634 739.357 254.46C736.336 260.195 732.362 265.449 728.446 270.623C726.697 272.929 724.432 277.02 721.311 275.195C718.807 273.711 720.775 269.7 722.067 267.214C728.069 255.663 733.037 243.571 740.51 232.803C748.062 221.914 755.456 210.965 760.682 198.572C765.89 186.22 774.157 175.692 784.412 167.069C796.377 157.022 808.52 147.176 820.862 137.611C827.58 132.417 833.82 127.003 838.451 119.704C840.796 115.994 841.591 112.244 841.492 108.033C841.392 103.942 839.365 101.215 835.728 99.6305C831.316 97.7054 826.963 97.6252 822.591 99.9915C817.106 102.959 811.422 105.546 805.996 108.614C800.888 111.522 795.105 109.938 792.74 104.564C792.243 103.461 791.806 102.318 791.229 101.275C789.262 97.6854 787.235 94.1159 785.227 90.5465C783.717 87.8794 781.431 86.2952 778.47 85.5733C774.495 84.5907 772.647 85.3527 771.236 89.3032C770.341 91.7898 769.805 94.4368 769.427 97.0437C768.473 103.481 767.957 109.998 766.804 116.415C765.353 124.496 763.485 132.497 761.696 140.519C757.98 157.163 751.779 172.844 742.855 187.322C740.351 191.393 737.151 195.143 733.753 198.492C729.619 202.563 725.883 201.36 724.153 195.865C723.657 194.261 723.259 192.576 723.12 190.912C721.749 175.271 720.497 159.609 719.066 143.968C718.151 134.102 717.177 124.256 715.846 114.45C715.13 109.116 712.706 104.303 709.148 100.192C704.915 95.3191 699.112 95.8405 696.409 101.656C694.6 105.566 693.289 109.777 692.394 114.009C690.009 125.198 690.049 136.628 690.128 147.978C690.228 161.514 691.043 175.05 691.758 188.566C691.957 192.396 692.434 196.366 693.646 199.976C696.21 207.656 697.164 215.517 697.104 223.498C697.065 231.7 697.581 240.102 696.031 248.043C694.342 256.726 690.765 265.088 687.624 273.43C685.001 280.429 680.966 286.986 679.078 294.145C674.945 309.766 671.645 325.628 668.306 341.45C666.657 349.271 665.146 357.091 661.45 364.25C660.734 365.614 659.343 367.218 658.012 367.539C655.885 368.04 655.567 365.614 655.03 364.15C654.096 361.684 653.023 359.117 652.844 356.53C651.711 339.886 650.718 323.242 649.863 306.578C649.565 300.783 649.823 294.967 649.823 289.152H650.002C650.002 280.188 650.002 271.244 650.002 262.281C650.002 259.373 650.181 256.445 649.823 253.578C649.307 249.246 648.392 244.955 645.471 241.486C643.464 239.119 641.118 238.979 639.568 241.646C636.885 246.198 634.361 250.911 632.473 255.824C629.77 262.842 628.617 270.342 628.478 277.842C628.2 292.842 628.299 307.841 628.121 322.841C628.021 331.343 629.094 339.706 630.346 348.088C631.281 354.284 631.837 360.621 631.777 366.877C631.618 383.562 630.804 400.005 623.987 415.887C619.117 427.257 613.891 438.326 607.491 448.834C599.72 461.608 591.552 474.141 583.443 486.694C581.217 490.123 578.773 493.452 576.089 496.52C574.42 498.425 572.234 500.932 569.412 499.548C566.868 498.285 567.742 495.217 567.941 492.931C568.835 481.581 570.147 470.271 574.042 459.482C579.11 445.385 583.324 430.987 586.066 416.268C589.584 397.338 588.809 378.087 587.497 359.077C586.444 343.816 586.047 328.656 586.603 313.416C586.901 305.515 588.551 298.055 592.128 291.097C595.864 283.818 600.098 276.799 603.894 269.54C608.823 260.155 613.553 250.65 618.342 241.185C623.828 230.376 627.723 218.966 631.122 207.355C633.705 198.532 636.17 189.689 638.793 180.885C643.464 165.144 648.631 149.563 650.837 133.159C652.01 124.516 653.401 115.934 652.944 107.19C652.745 103.521 652.427 99.7508 649.605 97.1038C645.888 93.6346 641.655 90.0652 636.309 91.2684C630.923 92.4916 629.75 97.7656 628.538 102.498C626.928 108.795 625.438 115.132 623.768 121.428C620.429 134.021 617.408 146.715 613.553 159.148C607.372 178.96 600.674 198.612 594.076 218.284C591.77 225.142 589.306 231.961 586.543 238.658C584.894 242.649 582.887 246.599 580.442 250.149C576.686 255.603 573.108 255.102 570.505 249.186C570.306 248.745 570.107 248.304 569.988 247.843C567.881 239.661 565.059 231.6 563.827 223.278C562.177 212.068 561.124 200.678 560.945 189.348C560.786 179.241 562.058 169.094 562.873 158.967C563.35 152.952 563.708 146.855 564.92 140.98C568.199 125.138 571.737 109.336 575.473 93.5945C579.23 77.8128 582.708 62.031 582.35 45.6477C582.27 41.7775 582.787 37.8872 582.549 34.037C582.131 27.5398 581.654 21.0226 580.581 14.6256C579.548 8.54957 575.593 4.27828 570.286 1.37058C566.152 -0.895409 564.582 -0.474294 561.939 3.55637C558.222 9.21132 557.169 15.6283 557.189 22.2659C557.189 34.8391 557.467 47.4324 557.249 60.0057C557.109 67.7261 556.553 75.4666 555.579 83.1268C555.221 85.9343 554.903 90.6267 551.545 90.6467C548.504 90.6668 547.371 86.2952 546.715 83.3274C545.324 76.9706 543.913 70.5135 543.476 64.0564C542.561 50.9818 540.494 38.1479 537.414 25.4543C535.764 18.6563 532.108 13.0013 525.628 9.79286C522.707 8.34904 519.448 7.7274 517.003 10.5348C514.141 13.8035 511.697 17.4331 511.597 22.1054C511.518 25.4944 511.379 28.8834 511.299 32.2723C510.941 44.9258 512.094 57.5592 515.294 69.6913C518.792 82.9664 524.098 95.7402 528.292 108.855C531.074 117.578 534.353 126.361 535.446 135.365C536.48 143.928 536.977 152.651 537.752 161.314C538.447 169.014 538.328 176.775 538.865 184.495C539.56 194.602 541.031 204.688 541.289 214.815C541.607 227.007 543.416 238.939 546.437 250.65C550.193 265.228 552.638 279.927 553.115 294.967C553.154 296.15 553.592 297.313 553.771 298.497C554.228 301.344 554.923 304.172 555.042 307.039C555.42 316.464 555.738 325.909 555.798 335.334C555.857 345.24 556.593 355.307 555.202 365.033C553.433 377.586 553.592 390.099 553.154 402.632C552.916 409.149 552.737 415.687 551.783 422.103C551.366 425.011 549.517 427.899 547.689 430.345C545.304 433.534 543.456 433.133 542.283 429.323C539.58 420.559 536.838 411.776 534.651 402.873C532.386 393.728 530.935 384.384 528.828 375.199C524.456 356.129 519.428 337.179 517.003 317.707C516.288 311.952 515.294 306.217 514.519 300.482C513.604 293.784 513.465 286.906 511.796 280.429C508.795 268.838 508.159 256.987 507.583 245.216C507.165 236.713 506.191 228.371 504.502 220.089C503.19 213.552 500.03 207.797 495.877 202.743C490.65 196.406 482.62 197.65 479.023 205.17C478.109 207.075 477.453 209.26 477.314 211.346C476.519 222.375 479.023 232.903 482.442 243.29C484.489 249.467 486.337 255.723 488.145 261.96C488.543 263.323 488.682 264.868 488.523 266.271C488.364 267.775 487.728 269.219 487.291 270.703C486.337 269.74 485.144 268.898 484.449 267.755C482.7 264.868 481.13 261.86 479.56 258.872C477.234 254.5 473.776 251.151 469.98 248.224C463.64 243.331 458.076 245.817 456.426 253.678C455.472 258.25 457.062 262.221 457.917 266.432C460.361 278.464 464.733 289.613 472.703 299.058C478.288 305.676 483.952 312.253 489.815 318.63C492.478 321.537 494.446 324.686 495.916 328.335C499.037 336.036 500.448 344.137 501.481 352.299C503.926 371.79 508.02 390.901 514.459 409.41C520.004 425.352 526.364 441.034 532.267 456.855C539.62 476.608 537.931 495.778 528.013 514.227C523.104 523.351 517.719 532.215 512.75 541.319C507.801 550.383 501.779 558.986 499.851 569.493C499.692 570.416 499.315 571.418 498.738 572.12C494.028 577.976 492.717 585.135 490.868 592.133C487.45 604.987 483.574 617.721 475.486 628.57C473.657 631.016 471.252 633.102 468.808 634.946C466.145 636.952 463.084 636.571 461.037 634.024C458.831 631.257 456.724 628.189 455.452 624.9C451.477 614.653 450.046 603.844 449.689 592.935C449.073 574.045 450.444 555.216 452.014 536.386C452.491 530.61 452.57 524.775 452.391 518.98C452.173 511.981 448.874 506.507 443.09 502.657C440.089 500.651 437.943 500.832 435.3 503.298C432.994 505.464 431.464 508.051 430.53 511.219C427.111 522.93 426.078 534.942 425.343 547.014C424.746 556.9 424.349 566.826 423.613 576.692C423.435 578.998 422.361 581.285 421.328 583.39C421.089 583.891 418.903 584.152 418.406 583.671C417.214 582.548 416.558 580.883 415.584 579.5C412.245 574.807 409.224 569.794 405.329 565.603C403.004 563.116 399.426 561.572 396.167 560.269C392.788 558.925 389.688 560.81 389.37 564.38C388.575 573.063 388.297 581.666 392.669 589.827C399.486 602.621 406.601 615.174 415.048 626.965C417.532 630.435 419.36 634.385 421.884 637.794C426.018 643.409 430.987 648.462 434.703 654.338C438.937 661.035 442.534 668.275 443.508 676.376C444.78 687.044 443.269 697.612 441.997 708.18C441.798 709.825 441.063 711.429 440.368 712.953C436.75 720.834 428.86 723.44 421.984 718.407C416.578 714.457 411.252 710.105 406.899 705.052C400.301 697.412 394.279 689.23 388.555 680.888C381.182 670.18 374.246 659.15 367.329 648.141C364.01 642.847 361.586 636.932 358.008 631.838C346.521 615.455 339.624 597.387 337.756 577.474C335.967 558.424 340.578 541.479 354.868 527.984C358.187 524.835 361.446 521.627 364.567 518.258C372.278 509.936 380.506 502.155 389.549 495.337C394.955 491.266 400.062 487.015 404.117 481.521C410.993 472.236 419.102 463.854 424.587 453.547C428.105 446.949 431.245 440.151 434.962 433.654C446.866 412.819 455.512 390.52 464.177 368.241C466.622 361.984 467.834 355.227 469.424 348.669C470.616 343.756 468.947 339.545 465.489 336.116C464.594 335.234 462.746 334.391 461.752 334.732C457.082 336.317 452.093 336.878 448.337 341.049C445.038 344.739 442.514 348.709 440.825 353.241C435.001 368.863 430.152 384.825 426.436 401.088C425.084 407.024 423.156 412.739 419.519 417.692C417.095 420.98 413.179 420.519 411.689 416.729C411.093 415.205 411.073 413.441 410.874 411.756C409.522 400.787 411.609 390.039 413.16 379.29C414.332 371.149 415.922 363.087 416.956 354.926C417.79 348.449 416.041 342.393 412.424 337.018C409.026 331.985 402.865 331.885 399.228 336.818C392.192 346.363 388.197 357.071 387.641 369.023C387.541 370.928 387.263 372.893 386.727 374.718C384.083 383.622 383.944 392.866 383.408 401.99C382.851 411.636 382.851 421.362 383.368 431.027C383.964 442.317 379.87 452.404 376.471 462.671C375.06 466.902 371.821 470.01 367.17 470.913C362.381 471.835 359.34 469.97 359.28 465.097C359.141 456.174 358.942 447.13 360.214 438.366C362.579 421.943 362.778 405.64 360.93 389.216C360.095 381.777 359.181 374.317 358.962 366.857C358.843 362.867 359.678 358.676 360.87 354.826C364.507 343.135 370.549 332.767 378.538 323.523C381.679 319.873 384.56 315.983 387.343 312.052C394.021 302.607 400.519 293.042 407.197 283.597C413.179 275.135 419.857 267.093 425.223 258.25C431.583 247.742 437.347 236.793 442.494 225.644C450.583 208.097 456.684 189.829 462.309 171.28C469.523 147.457 471.57 123.433 469.96 98.8484C469.344 89.5037 466.721 80.8207 461.116 73.1605C458.592 69.7314 455.532 67.1045 451.577 65.7609C446.688 64.1166 444.044 65.801 442.295 70.7742C439.891 77.6524 440.367 84.5707 441.719 91.489C443.965 102.919 445.793 114.349 444.7 126.06C443.925 134.242 443.587 142.504 442.196 150.585C440.884 158.165 438.499 165.565 436.452 173.005C436.075 174.368 435.26 175.652 434.405 176.795C433.511 177.978 432.159 177.918 431.504 176.594C430.649 174.89 429.874 173.025 429.635 171.16C429.019 166.628 428.582 162.056 428.344 157.463C427.767 146.595 427.409 135.706 426.873 124.837C426.614 119.483 424.13 115.091 420.294 111.542C417.393 108.855 414.451 108.935 412.325 112.184C410.119 115.573 408.072 119.282 406.998 123.153C403.978 133.941 403.779 145.151 404.256 156.22C404.812 169.014 406.601 181.728 407.396 194.521C408.191 207.797 408.429 221.132 406.303 234.347C405.607 238.598 404.892 243.03 403.123 246.9C399.784 254.3 394.239 260.055 387.383 264.386C384.044 266.492 380.327 267.394 376.372 267.033C372.636 266.692 371.244 265.65 370.509 261.92C369.873 258.631 369.158 255.142 369.595 251.893C372.198 233.164 369.913 214.254 372.099 195.424C373.749 181.166 373.212 166.467 372.099 151.989C371.98 150.545 372.02 149.081 371.781 147.658C370.37 139.075 369.098 130.472 367.409 121.95C366.276 116.194 364.288 110.68 358.763 107.531C353.119 104.303 347.753 106.348 346.739 112.745C345.13 122.972 343.142 133.159 343.321 143.647C343.48 153.032 344.354 162.517 341.97 171.842C341.314 174.428 341.035 177.777 338.034 178.058C335.033 178.319 334.199 175.01 332.986 172.644C327.243 161.314 324.798 148.981 321.956 136.749C319.671 126.983 319.69 117.137 320.525 107.17C321.241 98.7482 321.777 90.2858 321.718 81.8635C321.678 75.1056 320.605 68.3678 317.266 62.2516C312.774 54.0098 303.453 52.8467 296.835 59.5445C291.469 64.9788 292.005 71.9974 292.025 78.5347C292.065 86.957 293.357 95.3792 294.092 103.802C294.212 105.245 294.371 106.709 294.231 108.133C293.993 110.8 292.761 112.725 289.799 112.906C288.845 112.966 287.872 112.966 286.937 113.106C278.153 114.53 272.509 125.359 277.04 133.019C280.319 138.574 284.374 143.767 288.647 148.58C295.662 156.481 303.97 163.279 308.74 173.045C311.284 178.238 313.41 183.673 316.133 188.766C320.505 196.908 323.785 205.45 325.712 214.474C329.667 232.803 331.416 251.191 328.336 269.921C326.229 282.795 324.778 295.769 323.268 308.724C322.672 313.757 321.996 318.931 322.572 323.904C324.003 336.617 326.09 349.251 327.958 361.904C329.647 373.354 331.536 384.805 332.986 396.275C333.801 402.732 333.503 409.33 334.477 415.747C335.59 423.046 334.576 430.185 334.258 437.384C334.159 439.53 333.622 441.695 333.026 443.781C331.993 447.39 330.383 448.253 327.223 446.668C324.44 445.285 321.559 443.821 319.313 441.735C306.852 430.185 297.67 416.589 294.291 399.504C293.536 395.714 292.681 391.883 291.25 388.334C289.044 382.84 288.349 377.145 287.812 371.369C287.613 369.224 288.031 366.998 287.812 364.872C284.831 337.259 288.865 310.368 295.682 283.737C295.98 282.574 296.497 281.451 296.855 280.308C299.16 272.949 302.022 265.69 303.632 258.17C305.917 247.582 307.766 236.934 304.785 225.904C303.234 220.189 300.591 215.677 296.338 212.008C290.038 206.553 284.433 208.097 280.935 215.597C277.219 223.578 277.954 232.121 277.358 240.483C276.901 246.98 277.219 253.518 277.179 260.035C277.179 260.997 277.04 261.98 276.841 262.902C276.782 263.183 276.325 263.384 276.026 263.564C275.987 263.584 275.649 263.283 275.609 263.103C275.291 261.699 274.993 260.275 274.715 258.852C273.562 252.916 272.429 246.98 271.257 241.045C270.521 237.415 269.11 234.106 266.308 231.579C261.975 227.649 257.265 228.592 254.999 234.066C253.529 237.615 251.879 241.305 251.502 245.055C250.011 260.195 247.745 275.315 249.196 290.636C250.011 299.279 250.289 307.982 251.203 316.624C251.621 320.675 253.032 324.606 253.847 328.636C254.006 329.478 253.509 330.461 253.31 331.384C252.535 330.962 251.422 330.742 251.005 330.1C249.355 327.453 247.904 324.686 246.434 321.918C242.479 314.479 238.722 306.919 234.509 299.619C233.118 297.193 230.792 295.168 228.527 293.423C225.784 291.297 222.584 291.638 219.703 293.283C217.318 294.646 217.457 297.093 217.357 299.64C216.9 311.892 220.617 323.041 226.162 333.569C232.104 344.879 238.702 355.828 245.062 366.917C248.302 372.572 251.879 378.027 254.781 383.842C260.703 395.694 266.308 407.705 271.952 419.697C276.166 428.641 280.379 437.504 286.441 445.445C291.111 451.561 295.344 458.079 299.14 464.776C303.652 472.757 306.911 481.16 307.448 490.685C307.845 497.483 307.647 504.181 307.507 510.918C307.348 518.639 307.408 526.359 307.507 534.1C307.567 538.211 308.143 542.301 308.104 546.392C308.044 552.167 308.402 558.103 307.15 563.638C305.421 571.278 299.756 573.364 294.211 570.977C291.588 569.854 288.746 568.852 286.56 567.087C282.267 563.638 278.292 559.768 274.317 555.938C260.723 542.823 249.136 528.084 239.776 511.62C236.556 505.965 233.694 500.11 230.852 494.234C225.605 483.365 219.722 472.737 215.549 461.448C209.428 444.944 204.26 428.039 200.762 410.693C197.602 395.052 194.959 379.33 193.687 363.388C193.21 357.392 191.342 351.457 191.183 345.461C190.905 333.75 188.758 322.34 186.115 311.07C183.591 300.321 182.915 289.613 183.372 278.704C184.346 256.265 189.811 235.249 202.293 216.379C212.528 200.898 223.002 185.578 232.859 169.836C244.844 150.645 253.747 130.131 255.894 107.231C256.629 99.43 254.602 91.9101 252.257 84.5506C251.621 82.5453 250.09 80.8207 248.838 79.0561C246.334 75.5267 242.578 74.6845 238.643 74.9452C237.192 75.0455 235.085 76.0882 234.569 77.2914C233.038 80.7806 231.568 84.5105 231.13 88.2604C229.997 98.1065 229.083 107.973 226.4 117.558C223.995 126.161 222.008 134.944 218.808 143.246C215.43 151.989 210.898 160.291 206.705 168.693C204.658 172.784 202.273 176.775 198.258 179.341C194.82 181.547 192.932 181.086 191.859 177.176C190.706 173.005 189.652 168.713 189.374 164.402C188.48 150.325 185.817 136.588 182.061 123.093C179.536 114.049 175.124 106.108 166.34 101.515C162.206 99.3498 158.032 99.3096 153.879 101.074C152.646 101.596 151.076 102.679 150.798 103.781C149.924 107.251 148.552 111.101 149.248 114.39C151.375 124.516 154.316 134.483 157.019 144.489C158.032 148.199 159.424 151.829 160.318 155.578C162.206 163.56 163.617 171.661 165.724 179.602C168.168 188.806 169.46 198.051 168.685 207.596C168.109 214.595 167.771 221.593 167.294 228.592C166.857 234.948 165.326 241.024 162.365 246.659C159.801 251.532 156.224 252.475 151.692 249.306C148.97 247.401 146.287 245.135 144.339 242.468C137.204 232.763 129.612 223.278 123.63 212.87C113.613 195.484 105.644 177.135 102.623 156.902C101.351 148.319 99.3236 139.797 96.9585 131.455C95.1102 124.978 92.7253 118.541 89.5851 112.625C86.8822 107.531 82.7881 103.18 76.468 102.278C70.8635 101.475 66.7296 104.584 65.4378 110.138C63.6292 117.859 63.51 125.719 66.1731 133.039C70.5852 145.151 72.4534 157.844 75.8718 170.177C76.2494 171.561 76.5674 173.005 76.5873 174.408C76.627 176.273 75.4743 177.216 73.8049 176.273C71.3206 174.869 68.717 173.426 66.7097 171.44C60.7077 165.525 54.7454 159.549 49.1806 153.212C44.9871 148.44 40.1576 144.529 34.9704 141.02C30.4987 137.992 25.6096 137.43 20.6211 139.857C18.2163 141.02 16.9046 142.925 17.4412 145.712C20.1243 159.348 23.9401 172.563 33.2612 183.312C41.7078 193.038 51.5655 201.42 62.9336 207.135C74.7589 213.071 84.5768 221.352 94.2953 229.955C96.2629 231.7 98.1311 233.685 99.5223 235.891C110.115 252.756 122.994 267.615 137.025 281.612C141.914 286.485 146.505 292.079 149.745 298.156C155.806 309.506 159.583 321.738 159.364 334.913C159.265 340.969 159.364 347.005 159.145 353.061C159.026 356.67 158.529 360.28 158.132 363.889C158.092 364.311 157.655 364.992 157.396 364.992C156.8 364.992 156.025 364.852 155.608 364.451C154.912 363.809 154.415 362.947 153.899 362.125C148.016 352.72 141.914 343.455 136.349 333.87C130.546 323.864 126.353 312.834 118.065 304.472C109.777 296.09 101.192 288.009 92.6656 279.867C87.5579 274.994 81.5758 271.345 75.0967 268.758C72.1156 267.575 68.5779 267.093 65.3583 267.334C60.1711 267.715 57.1502 271.946 58.283 277.04C58.9587 280.028 60.2307 283.116 62.0591 285.522C66.8886 291.839 72.0361 297.895 77.2829 303.851C83.0067 310.348 89.2671 316.384 94.7723 323.041C98.0913 327.052 100.973 331.624 103.1 336.377C105.107 340.849 102.762 344.037 97.9522 344.238C94.1364 344.398 90.2608 344.238 86.4847 343.676C66.3917 340.788 48.4452 332.306 31.5719 321.377C26.2058 317.908 20.5217 315.481 14.3806 314.318C11.3994 313.757 8.17976 314.018 5.11911 314.419C2.95281 314.699 1.26349 316.183 0.607634 318.57C-0.882943 323.864 0.329394 327.734 4.68188 331.303C21.7341 345.24 40.6346 356.189 60.4096 365.614C62.9137 366.817 65.9148 367.098 68.7369 367.459C72.2944 367.9 75.9116 367.92 79.4889 368.181C85.2128 368.582 90.9167 369.183 96.6405 369.444C100.953 369.645 105.266 369.344 109.579 369.444C120.569 369.765 128.857 375.4 134.66 384.203C139.947 392.244 144.518 400.827 148.652 409.53C157.993 429.202 169.5 447.551 181.444 465.659C187.148 474.302 192.813 483.005 198.039 491.948C204.24 502.536 208.811 514.027 215.489 524.374C216.781 526.379 217.874 528.605 218.669 530.871C220.279 535.463 218.351 537.749 213.422 537.469C212.707 537.428 211.971 537.388 211.296 537.168C205.592 535.343 199.749 533.839 194.243 531.533C185.837 528.024 177.688 523.893 169.381 520.123C151.931 512.202 136.469 501.373 122.755 487.958C121.205 486.434 119.655 484.889 118.323 483.205C108.665 470.872 99.0056 458.52 89.4659 446.107C87.8759 444.021 86.6636 441.635 85.4314 439.309C80.9994 431.027 76.786 422.605 72.1553 414.423C69.3332 409.43 64.9211 405.981 59.3165 404.517C54.5864 403.274 50.2339 404.076 46.8751 407.986C45.5833 409.49 44.7486 411.134 45.6827 413.28C47.9682 418.594 49.578 424.289 52.4797 429.222C59.6941 441.475 67.6637 453.306 75.0172 465.478C80.9 475.224 87.6176 484.328 94.9114 492.991C98.3696 497.102 101.271 501.473 103.239 506.467C104.213 508.933 103.338 510.096 100.675 510.116C99.9595 510.116 99.2242 510.096 98.5286 509.956C90.082 508.211 81.5956 506.667 73.2484 504.602C67.2066 503.118 61.3635 500.852 55.4012 499.067C50.2935 497.543 45.4243 498.425 40.8532 501.092C34.9903 504.521 33.6984 511.841 38.9254 516.112C44.8281 520.945 51.0686 525.698 57.8855 528.966C76.0904 537.669 95.6667 541.239 115.72 541.9C125.876 542.241 135.694 543.906 145.273 547.255C157.496 551.506 169.719 555.757 181.961 559.888C194.462 564.099 207.062 567.849 220.239 569.594C229.004 570.757 237.828 572.261 246.294 574.747C262.413 579.5 276.344 588.143 288.329 600.235C299.438 611.464 308.263 624.338 316.968 637.373C318.975 640.381 321.161 643.329 322.691 646.577C333.026 668.716 344.931 689.892 358.942 709.905C364.547 717.906 370.768 725.185 378.34 731.141C384.163 735.713 390.523 739.704 396.982 743.353C408.052 749.61 419.321 755.525 430.669 761.261C433.769 762.825 437.466 764.068 440.864 764.008C458.016 763.747 474.651 760.539 490.292 753.099M463.124 349.993C463.124 350.233 463.064 350.474 463.024 350.715C463.223 350.775 463.442 350.855 463.64 350.915C461.653 357.071 459.944 363.328 457.599 369.344C453.147 380.774 448.357 392.064 443.687 403.394C443.229 404.497 442.752 405.62 442.156 406.663C441.818 407.244 441.222 407.685 440.725 408.187C440.626 407.565 440.348 406.903 440.467 406.322C440.904 404.216 441.262 402.03 442.017 400.025C446.012 389.477 450.146 378.969 454.2 368.421C456.625 362.145 458.95 355.828 461.414 349.572C461.673 348.91 462.488 348.449 463.064 347.887C463.084 348.569 463.124 349.271 463.124 349.953M432.08 403.554C434.206 395.172 436.075 386.67 438.917 378.508C442.097 369.424 443.905 359.819 448.735 351.376C450.126 348.93 452.391 346.965 454.359 344.899C454.697 344.538 455.611 344.739 456.267 344.679C456.307 345.36 456.545 346.122 456.327 346.684C450.344 361.964 444.283 377.185 438.34 392.485C436.333 397.659 434.683 402.973 432.756 408.167C431.901 410.453 430.848 412.658 429.854 414.904C430.569 411.114 431.146 407.284 432.08 403.554ZM474.83 746.622C476.897 745.74 478.944 744.877 481.011 743.995C479.341 745.82 477.195 746.481 474.83 746.622ZM484.687 742.25C485.82 740.185 487.609 739.423 489.855 739.543C488.126 740.445 486.397 741.348 484.687 742.25ZM513.545 735.051C514.34 734.289 515.036 733.407 515.97 732.885C522.27 729.416 528.61 726.047 534.989 722.719C535.705 722.338 536.599 722.297 537.434 722.157C530.398 728.193 522.767 733.106 513.545 735.051ZM785.625 563.177C773.74 571.378 760.841 577.775 747.764 583.851C737.33 588.704 726.836 593.577 716.959 599.433C710.659 603.182 705.213 608.517 699.768 613.57C696.528 616.578 697.502 620.167 701.854 620.969C705.73 621.691 710.003 621.651 713.858 620.809C721.59 619.105 729.241 617.119 737.211 616.999C741.583 616.939 745.836 617.32 749.771 619.425C750.348 619.746 751.183 620.589 751.083 620.969C750.884 621.772 750.248 622.814 749.573 623.035C747.088 623.877 744.545 624.699 741.941 625C729.559 626.504 717.118 626.825 704.677 626.043C702.311 625.883 700.006 624.96 697.641 624.719C691.699 624.098 685.756 623.677 679.814 623.155C679.138 623.095 678.482 622.834 677.806 622.654C678.224 621.892 678.442 620.889 679.078 620.388C683.57 616.778 687.903 612.888 692.752 609.84C701.676 604.205 710.798 598.851 720.079 593.838C726.598 590.308 733.435 587.28 740.311 584.493C754.621 578.698 767.778 570.837 780.736 562.535C785.724 559.346 790.911 556.479 794.966 552.027C793.932 557.482 789.62 560.369 785.625 563.136M795.125 551.887H795.363H795.105H795.125ZM637.302 635.287C637.521 634.666 637.561 633.823 637.978 633.422C646.822 624.98 655.348 616.137 664.689 608.276C677.866 597.187 692.851 589.226 709.526 584.673C722.762 581.044 735.124 575.329 747.128 568.671C752.971 565.443 759.252 563.016 765.134 559.848C771.037 556.659 776.622 552.869 782.485 549.641C785.088 548.197 788.049 547.435 790.872 546.372C790.693 549.079 788.566 550.363 786.698 551.686C780.438 556.098 774.276 560.75 767.698 564.62C757.999 570.336 747.983 575.509 738.046 580.823C736.376 581.726 734.528 582.327 732.739 582.989C725.068 585.796 717.555 588.905 710.937 593.858C709.784 594.72 708.532 595.482 707.22 596.044C694.123 601.779 683.212 610.843 671.943 619.405C668.942 621.691 665.524 623.737 661.986 624.88C653.957 627.487 646.266 630.635 639.171 635.287C638.733 635.568 637.938 635.287 637.302 635.287ZM629.631 648.041C637.124 642.426 644.636 636.831 653.599 633.603C661.748 630.655 669.896 628.329 678.721 628.509C687.147 628.67 695.475 629.191 703.723 630.916C706.267 631.437 708.93 631.417 711.553 631.417C723.537 631.377 735.522 631.457 747.367 629.211C747.943 629.111 748.639 629.592 749.255 629.793C748.877 630.354 748.619 631.116 748.082 631.437C747.049 632.039 745.916 632.56 744.763 632.801C738.92 634.024 733.077 635.688 727.174 636.21C714.554 637.313 701.874 637.774 689.214 638.556C673.215 639.539 658.071 643.489 644.338 652.112C644.139 652.232 643.941 652.393 643.722 652.493C629.174 658.449 618.422 669.678 606.557 679.424C599.323 685.36 591.691 690.894 583.88 696.028C574.46 702.224 564.662 707.859 555.003 713.675C551.306 715.901 547.59 718.126 543.754 720.092C542.005 720.994 539.978 721.335 538.07 721.896C543.496 717.846 548.961 713.835 554.307 709.684C563.41 702.625 572.87 695.908 581.416 688.207C596.997 674.21 612.917 660.654 629.651 648.081M765.114 485.912C765.393 489.863 763.465 492.971 760.762 495.478C752.673 503.038 744.723 510.758 736.257 517.857C729.082 523.873 721.391 529.267 713.719 534.661C709.208 537.83 704.359 540.477 699.589 543.264C693.149 547.014 686.889 551.225 680.132 554.213C670.532 558.444 662.543 565.042 654.116 570.977C645.689 576.933 637.561 583.35 629.472 589.767C619.217 597.888 611.207 608.196 603.019 618.302C597.733 624.84 592.645 631.557 587.696 638.355C584.298 643.028 581.138 647.881 578.117 652.814C574.221 659.171 570.505 665.648 566.927 672.205C565.914 674.05 565.437 676.276 565.139 678.401C564.344 684.056 565.973 685.961 571.518 686.282C572.214 686.322 572.949 686.002 573.645 686.022C574.042 686.022 574.46 686.362 574.857 686.543C574.659 686.944 574.599 687.505 574.281 687.746C565.02 695.005 555.857 702.425 546.417 709.423C531.273 720.633 513.982 728.073 497.566 737.016C495.4 738.2 492.816 738.641 490.411 739.363C491.504 738.26 492.518 737.077 493.71 736.134C508.099 724.744 521.137 711.93 532.445 697.432C537.175 691.376 541.031 684.618 545.245 678.161C548.524 673.127 551.624 667.954 555.042 663.021C566.987 645.775 578.892 628.509 591.055 611.424C603.576 593.858 620.25 580.964 638.038 569.253C655.547 557.722 674.229 548.458 692.99 539.273C702.908 534.421 712.865 529.548 722.345 523.913C732.918 517.616 742.199 509.595 749.831 499.729C753.806 494.575 758.139 489.702 762.352 484.749C762.769 484.248 763.505 484.027 764.101 483.686C764.459 484.448 765.055 485.19 765.114 485.972M784.472 302.968C784.631 302.627 785.406 302.206 785.565 302.307C786.062 302.648 786.658 303.169 786.758 303.71C787.374 307.159 786.42 310.288 784.949 313.456C781.531 320.896 778.43 328.476 775.25 336.016C774.873 336.898 774.793 337.881 774.555 338.823C773.243 343.836 774.555 345.902 779.464 345.3C782.703 344.899 786.161 343.937 788.884 342.212C794.767 338.502 800.133 334.091 804.426 328.416C813.012 317.066 824.36 309.044 836.662 302.347C838.173 301.525 840.24 301.745 842.048 301.464C841.273 303.049 840.856 305.034 839.663 306.197C828.176 317.447 816.947 329.057 804.823 339.585C795.979 347.245 785.843 353.402 776.304 360.26C772.627 362.907 769.069 365.754 765.373 368.361C763.505 369.685 761.438 370.707 759.45 371.851C759.709 370.046 759.748 368.141 760.305 366.436C765.194 351.296 770.878 336.437 777.039 321.778C778.709 317.788 780.02 313.657 781.57 309.606C782.425 307.36 783.439 305.154 784.452 302.988M707.101 442.698C709.844 435.218 712.229 427.578 715.429 420.319C720.695 408.387 726.28 396.616 732.123 384.965C735.144 378.949 739.178 373.455 742.438 367.539C750.606 352.76 758.496 337.841 766.665 323.082C769.427 318.108 771.077 312.493 774.992 308.182C775.668 311.631 774.336 314.719 773.025 317.747C765.512 335.013 758.953 352.64 753.23 370.587C752.355 373.334 751.58 376.122 750.566 378.809C750.09 380.092 749.294 381.316 748.42 382.398C745.598 385.988 742.637 389.457 739.814 393.047C737.012 396.656 734.15 400.226 731.626 404.036C728.188 409.249 724.948 414.604 721.788 420.018C717.297 427.698 713.004 435.479 708.552 443.179C708.294 443.62 707.539 443.741 707.022 444.021C707.022 443.58 706.922 443.099 707.061 442.698M722.762 427.939C725.227 425.051 726.757 421.361 728.665 418.013C737.43 402.552 748.837 389.337 762.094 377.646C769.328 371.249 777.417 366.155 785.227 360.561C805.36 346.143 825.055 331.123 841.313 312.092C843.181 309.907 845.307 307.921 847.394 305.916C847.812 305.515 848.587 305.535 849.203 305.375C849.302 306.056 849.62 306.839 849.441 307.44C847.812 312.694 844.532 316.785 840.438 320.274C833.681 326.049 826.705 331.584 820.147 337.58C812.515 344.558 805.3 351.978 797.808 359.097C792.402 364.23 786.797 369.143 781.332 374.217C775.886 379.29 770.52 384.464 765.095 389.577C759.848 394.531 754.7 399.604 749.255 404.336C742.458 410.272 737.211 417.371 732.62 425.091C725.465 437.103 718.33 449.135 710.718 460.846C701.079 475.665 695.276 491.868 692.255 509.214C691.023 516.293 693.885 519.922 702.232 520.002C703.067 519.762 705.293 519.501 707.141 518.518C711.811 516.072 716.701 513.826 720.775 510.578C726.757 505.805 732.063 500.15 737.767 495.016C744.008 489.402 750.368 483.907 756.747 478.432C757.383 477.871 758.476 477.851 759.351 477.57C759.232 478.653 759.232 479.776 758.953 480.839C758.794 481.501 758.317 482.142 757.84 482.664C749.593 491.748 741.722 501.213 732.958 509.775C725.406 517.175 716.561 523.05 706.724 527.262C701.218 529.608 695.972 532.556 690.586 535.183C688.876 536.025 687.128 536.827 685.319 537.328C684.822 537.469 683.471 536.446 683.411 535.864C683.272 534.22 683.411 532.495 683.769 530.871C689.254 505.324 695.713 480.077 706.922 456.354C711.553 446.568 715.528 436.421 722.703 427.999M497.109 631.016C489.497 644.833 483.992 659.411 480.156 674.672C478.228 682.392 476.579 690.172 474.889 697.953C474.532 699.597 474.372 701.322 474.412 702.986C474.71 715.159 481.984 716.963 490.709 713.835C494.565 712.451 498.142 709.343 501.004 706.235C505.059 701.823 508.596 696.89 511.875 691.837C523.403 674.03 534.612 656.022 546.198 638.255C551.724 629.793 557.567 621.511 563.767 613.53C575.255 598.731 589.286 586.759 605.205 576.973C614.209 571.438 622.993 565.563 631.976 559.988C639.21 555.496 645.55 550.022 650.638 543.184C659.284 531.613 667.909 520.022 676.236 508.211C679.555 503.499 682.02 498.205 684.941 493.212C685.577 492.129 686.472 491.186 687.267 490.204C686.372 494.054 685.478 497.924 684.623 501.774C682.079 513.064 679.476 524.354 677.071 535.664C676.157 539.935 674.03 542.562 670.135 544.948C654.216 554.714 637.183 562.695 622.794 574.908C621.88 575.69 620.926 576.472 619.873 576.993C613.692 580.001 609.359 585.155 604.41 589.747C593.758 599.653 585.172 611.103 577.361 623.276C575.811 625.702 573.923 627.908 572.254 630.274C563.072 643.208 553.81 656.102 544.787 669.137C541.389 674.05 538.408 679.284 535.367 684.437C526.682 699.196 514.559 710.827 502.038 722.117C497.785 725.967 493.392 729.777 488.642 732.946C478.169 739.944 466.224 743.674 454.359 747.464C451.358 748.427 450.623 747.745 451.418 744.937C452.769 740.065 453.942 735.091 455.75 730.379C461.693 714.818 465.528 698.595 470.418 682.713C472.544 675.815 475.227 669.077 477.95 662.379C480.315 656.584 483.058 650.949 485.701 645.254C486.814 642.847 488.026 640.481 489.378 638.195C495.38 628.028 501.402 617.881 507.503 607.775C508.139 606.712 509.113 605.849 509.987 604.927C505.734 613.65 501.799 622.534 497.129 631.016M510.723 603.583C511.995 600.395 512.909 597.006 515.751 594.74C514.082 597.688 512.392 600.636 510.723 603.583ZM677.488 383.281C674.607 393.748 672.659 404.517 668.187 414.463C664.53 422.585 660.416 430.506 656.481 438.507C656.064 439.369 655.527 440.191 654.931 440.953C644.259 454.569 633.666 468.246 622.834 481.721C615.56 490.765 606.974 498.445 597.812 505.544C586.762 514.107 577.163 524.274 567.305 534.16C563.251 538.231 559.216 542.442 554.645 545.911C547.013 551.706 541.766 559.467 536.241 567.027C531.412 573.624 526.722 580.322 521.892 586.919C521.137 587.962 520.044 588.744 519.07 589.627C522.985 579.58 527.835 570.115 535.049 561.953C538.547 557.983 541.568 553.591 545.026 549.581C554.804 538.231 566.888 529.347 577.58 518.98C589.664 507.249 602.503 496.119 613.374 483.325C629.571 464.255 644.855 444.322 656.123 421.642C662.563 408.688 669.28 395.874 675.938 383.04C676.296 382.338 677.111 381.857 677.707 381.275C677.647 381.937 677.687 382.619 677.508 383.261M679.377 375.941C679.277 375.741 679.059 375.48 679.118 375.38C679.377 374.959 679.695 374.558 679.993 374.157C679.794 374.758 679.575 375.36 679.377 375.941ZM825.711 198.472C822.512 202.643 819.789 207.436 815.874 210.764C806.175 219.006 796.576 227.268 787.871 236.633C781.849 243.11 774.754 248.544 768.294 254.6C766.049 256.706 764.3 259.373 762.213 261.659C759.013 265.208 755.714 268.678 752.435 272.147C750.626 274.052 748.599 275.776 746.91 277.782C739.973 286.084 733.077 294.426 726.26 302.828C721.133 309.165 716.184 315.622 711.136 322.039C710.997 322.219 710.897 322.54 710.698 322.6C705.929 324.245 704.597 328.837 702.212 332.567C699.748 336.417 697.184 340.227 694.402 343.836C692.732 346.002 690.606 347.767 688.658 349.712C689.89 345.902 691.142 342.092 692.354 338.282C693.269 335.414 694.799 333.088 697.422 331.504C698.436 330.902 699.609 330.2 700.145 329.218C703.544 323.021 708.492 318.068 712.825 312.634C715.369 309.445 717.555 305.996 720.099 302.828C727.949 293.102 735.661 283.236 743.849 273.811C753.627 262.561 763.147 251.071 774.197 241.004C781.988 233.886 789.401 226.366 797.013 219.026C797.867 218.184 798.782 217.402 799.716 216.64C807.765 210.183 815.814 203.726 823.903 197.309C824.519 196.828 825.433 196.747 826.208 196.487C826.049 197.148 826.049 197.93 825.672 198.432M783.975 101.295C785.267 103.32 786.499 105.406 787.553 107.551C791.667 116.154 798.265 118.781 806.95 114.891C811.958 112.625 816.768 109.898 821.737 107.511C823.863 106.489 826.129 105.707 828.394 105.005C828.951 104.824 830.024 105.165 830.302 105.606C830.561 106.007 830.302 107.13 829.885 107.531C826.844 110.579 823.962 113.848 820.584 116.475C810.547 124.256 800.292 131.776 790.136 139.396C789.361 139.977 788.606 140.539 787.811 141.1C784.552 143.366 783.757 143.306 782.902 139.696C781.411 133.38 780.378 126.963 779.424 122.09C780.219 114.229 780.835 107.993 781.511 101.756C781.551 101.355 782.028 100.673 782.286 100.673C782.862 100.673 783.717 100.874 783.975 101.295ZM758.993 168.072C759.192 167.129 759.49 166.187 759.907 165.324C765.432 153.894 767.38 141.501 769.705 129.189C770.103 127.063 770.461 124.897 771.097 122.832C772.885 117.037 774.257 111.201 773.859 105.065C773.78 103.902 774.098 102.659 774.416 101.515C774.595 100.854 775.131 100.292 775.509 99.6706C775.628 99.9513 775.727 100.192 775.807 100.393C775.389 106.99 775.191 112.043 774.694 117.077C773.76 126.622 774.853 135.886 777.933 144.93C778.569 146.775 779.146 148.48 777.516 150.284C771.872 156.521 766.386 162.878 760.782 169.154C760.365 169.636 759.57 169.776 758.953 170.077C758.953 169.415 758.854 168.733 758.993 168.092M745.737 194.562C753.488 184.014 762.074 174.348 770.799 164.743C778.887 155.839 787.791 147.778 797.351 140.438C809.156 131.374 820.842 122.11 832.588 112.966C833.085 112.585 833.8 112.505 834.416 112.284C834.377 112.946 834.536 113.688 834.297 114.249C831.157 121.268 825.87 126.421 819.968 131.114C806.612 141.742 793.316 152.47 780.08 163.239C768.394 172.724 761.04 185.417 754.402 198.672C751.063 205.33 747.784 212.168 743.451 218.184C732.978 232.763 724.71 248.524 717.058 264.687C715.111 268.818 713.203 272.949 714.554 277.842C715.925 282.755 719.085 284.6 723.676 282.394C725.564 281.492 727.453 280.128 728.744 278.484C733.236 272.849 738.046 267.334 741.663 261.138C746.711 252.495 753.09 245.015 759.51 237.515C764.041 232.221 768.751 227.027 773.8 222.235C779.543 216.78 785.565 211.567 791.826 206.734C797.132 202.623 802.916 199.114 808.6 195.524C810.806 194.12 813.29 193.158 815.715 192.135C816.271 191.895 817.046 192.255 817.742 192.336C817.503 192.937 817.384 193.639 816.987 194.1C811.64 200.317 806.095 206.313 799.139 210.764C798.325 211.286 797.53 211.847 796.854 212.529C786.38 223.117 774.336 232.041 764.896 243.752C760.225 249.527 754.323 254.28 749.473 259.914C740.212 270.663 731.268 281.712 722.226 292.661C715.627 300.622 709.069 308.623 702.431 316.584C701.874 317.246 701.02 317.627 700.264 318.108C700.225 317.447 700.086 316.745 700.264 316.163C705.213 299.018 707.36 281.151 713.441 264.266C716.959 254.52 719.702 244.494 722.881 234.608C723.776 231.86 724.591 228.953 726.121 226.566C732.878 216.038 738.244 204.708 745.717 194.521M708.87 110.981C709.427 111.743 709.844 112.705 709.983 113.628C711.036 120.807 712.229 127.945 712.924 135.164C713.739 143.567 714.097 152.029 714.673 160.471C715.091 166.748 715.349 173.045 716.025 179.281C716.76 185.999 717.814 192.697 718.926 199.354C719.702 204.027 721.947 207.496 727.194 207.917C728.566 208.037 729.698 208.639 728.923 210.183C726.916 214.254 724.869 218.345 722.544 222.255C721.729 223.639 719.92 223.939 719.264 221.954C718.052 218.304 716.78 214.615 716.164 210.825C713.858 196.527 711.653 182.209 709.665 167.871C707.638 153.292 705.909 138.654 704.12 124.697C704.736 119.623 705.253 115.312 705.829 111.021C705.909 110.399 706.465 109.837 706.783 109.236C707.479 109.817 708.333 110.279 708.85 111.001M636.945 262.682C637.004 262.08 637.283 261.519 637.461 260.917C637.581 261.519 637.839 262.16 637.74 262.742C637.64 263.344 637.302 263.905 637.024 264.487C636.965 263.885 636.885 263.263 636.925 262.662M636.885 264.988C636.488 267.615 636.07 270.242 635.673 272.849C635.534 270.142 635.017 267.374 636.885 264.988ZM635.534 273.851C635.275 277.16 634.997 280.469 634.739 283.778C634.56 280.429 633.606 276.98 635.534 273.851ZM642.649 264.888C642.768 264.186 643.364 263.564 643.742 262.902C643.841 263.604 644.06 264.326 644.06 265.028C644.08 275.436 644.06 285.843 644.06 296.231C643.742 296.231 643.424 296.251 643.086 296.271C643.782 309.044 644.596 321.818 645.113 334.612C645.491 344.057 645.948 353.482 648.194 362.666C649.028 366.095 650.439 369.504 652.188 372.572C654.136 376.022 657.535 376.603 660.814 374.377C662.364 373.334 663.735 371.851 664.828 370.306C669.121 364.291 671.327 357.432 672.719 350.233C675.74 334.592 678.085 318.75 682.079 303.349C684.743 293.162 690.069 283.697 693.726 273.751C698.118 261.819 703.226 250.008 702.769 236.833C702.471 228.15 702.272 219.488 701.914 210.825C701.835 208.92 701.576 206.914 700.9 205.13C697.403 195.865 697.482 186.179 697.204 176.494C696.965 168.272 696.429 160.07 696.19 151.849C695.813 138.553 695.793 125.278 698.734 112.204C698.893 111.502 699.35 110.86 699.688 110.178C699.768 110.88 699.927 111.602 699.887 112.304C699.628 116.395 698.913 120.526 699.112 124.576C699.549 133.48 699.927 142.444 701.238 151.227C704.398 172.243 708.015 193.198 711.573 214.173C712.467 219.387 713.958 224.501 714.912 229.735C715.369 232.261 715.687 234.989 715.27 237.495C714.256 243.671 713.044 249.848 711.394 255.884C710.122 260.516 708.135 264.968 706.286 269.42C703.762 275.456 702.411 281.732 701.099 288.149C698.655 300.181 695.216 312.012 691.758 323.803C689.592 331.203 686.75 338.402 684.027 345.621C678.86 359.398 673.792 373.214 668.247 386.83C665.604 393.267 661.927 399.283 658.687 405.459C658.369 406.041 657.753 406.462 657.276 406.963C656.68 406.322 655.726 405.78 655.527 405.018C652.725 395.032 649.108 385.166 647.498 374.979C644.656 356.851 643.046 338.542 640.92 320.294C640.701 318.369 640.542 316.444 640.264 314.519C637.819 297.815 639.986 281.311 642.609 264.848M633.844 331.283C633.785 326.972 633.844 322.64 633.904 318.329C633.904 317.647 634.222 316.965 634.401 316.263C634.699 316.865 635.236 317.467 635.275 318.088C635.752 327.754 636.17 337.44 636.587 347.105C634.142 342.112 633.924 336.698 633.844 331.283ZM642.987 100.192C645.471 99.9513 646.504 102.217 646.862 104.503C647.319 107.351 648.194 110.299 647.876 113.086C646.862 122.451 645.749 131.836 643.98 141.1C642.351 149.623 640.443 158.185 637.581 166.327C630.068 187.744 625.915 210.303 616.752 231.098C611.108 243.872 604.43 256.245 597.335 268.257C591.273 278.504 585.768 288.871 582.092 300.181C581.277 302.688 580.522 305.355 580.502 307.962C580.343 321.497 579.389 335.133 580.7 348.529C582.429 366.196 582.529 383.802 581.694 401.429C581.257 410.573 579.687 419.617 577.024 428.5C572.453 443.761 568.06 459.081 564.344 474.562C562.555 482.022 562.058 489.863 561.641 497.563C561.164 506.045 566.768 509.475 574.321 505.484C577.004 504.06 579.508 501.955 581.515 499.649C589.008 491.066 594.294 480.979 600.098 471.253C602.562 467.123 605.404 463.212 607.869 459.101C613.791 449.175 620.509 439.71 624.503 428.721C628.2 418.514 631.936 408.307 635.454 398.04C636.368 395.353 636.865 392.385 636.885 389.537C636.965 375.641 636.806 361.764 636.726 347.867C637.68 350.915 639.012 353.903 639.389 357.031C641.615 375.3 645.133 393.227 651.552 410.493C652.983 414.343 653.023 417.652 650.539 421.361C644.656 430.145 639.707 439.59 633.626 448.213C625.438 459.803 617.11 471.414 607.729 482.002C596.58 494.575 584.894 506.747 571.479 517.035C569.034 518.92 567.047 521.406 564.721 523.472C560.985 526.82 557.308 530.33 553.294 533.298C546.993 537.93 542.661 544.347 537.454 549.982C534.671 552.97 531.809 555.897 528.987 558.845C531.69 552.829 534.632 546.934 536.997 540.777C541.13 529.969 544.907 519.02 548.742 508.091C551.386 500.571 553.691 492.931 556.533 485.491C560.409 475.344 563.986 465.177 565.934 454.369C568.12 442.257 571.24 430.305 573.963 418.273C577.322 403.454 576.765 388.474 575.732 373.475C574.877 360.922 573.864 348.368 573.565 335.815C573.088 315.522 576.805 295.789 584 276.94C588.133 266.151 594.215 256.165 599.084 245.637C605.166 232.502 611.029 219.267 616.713 205.952C620.111 197.971 623.271 189.849 626.014 181.587C630.287 168.753 634.341 155.819 636.428 142.404C638.356 130.011 639.568 117.518 641.218 105.065C641.456 103.3 642.211 100.212 642.947 100.152M560.289 235.39C560.727 237.014 561.144 238.658 561.561 240.303C562.635 244.514 563.469 248.805 564.821 252.916C567.722 261.739 576.606 263.805 582.767 256.866C585.589 253.698 587.954 249.828 589.524 245.857C593.996 234.668 598.07 223.298 602.125 211.928C606.1 200.798 610.114 189.669 613.632 178.379C616.554 168.954 618.74 159.288 621.323 149.743C623.092 143.226 625.04 136.749 626.868 130.251C629.353 121.428 631.777 112.585 634.301 103.761C634.441 103.26 635.176 102.919 635.633 102.498C635.752 102.939 636.011 103.4 635.971 103.822C635.812 105.747 635.554 107.672 635.335 109.577C635.434 109.577 635.554 109.597 635.653 109.617C634.56 117.277 633.387 124.917 632.393 132.578C630.168 149.643 625.994 166.247 620.926 182.63C616.494 196.968 610.631 210.724 604.271 224.26C600.376 232.542 596.222 240.704 592.108 248.885C586.166 260.717 579.985 272.428 575.434 284.921C575.195 285.602 574.977 286.324 574.579 286.906C574.221 287.447 573.665 287.868 573.168 288.33C572.731 287.868 572.055 287.487 571.876 286.926C569.67 280.028 567.245 273.19 565.457 266.191C563.171 257.308 561.402 248.304 559.455 239.34C559.196 238.177 559.196 236.934 559.196 235.73C559.196 235.43 559.614 235.149 559.852 234.848C560.011 235.029 560.25 235.169 560.309 235.37M562.118 77.9732C562.098 68.3076 562.098 58.6421 562.098 48.9765C562.197 48.9765 562.317 48.9765 562.416 48.9765C562.416 41.2561 562.277 33.5357 562.476 25.8152C562.575 21.7244 563.191 17.6537 563.688 13.5829C563.767 12.9813 564.443 12.48 564.841 11.9185C565.278 12.5802 566.033 13.2019 566.113 13.8837C566.669 19.8996 566.59 26.0158 567.683 31.9314C569.63 42.5996 567.881 53.1475 567.265 63.6954C566.967 68.6485 564.94 73.5014 563.648 78.3743C563.569 78.6951 562.953 78.8956 562.595 79.1363C562.436 78.7352 562.158 78.3342 562.158 77.9331M561.064 84.9717L561.402 84.8514L561.243 85.453L561.064 84.9517V84.9717ZM571.618 68.6485C574.738 55.574 575.255 42.4793 572.89 29.1842C572.015 24.2912 572.572 19.1376 572.472 14.1043C575.911 18.4959 575.99 23.7899 576.129 28.9435C576.368 36.9046 576.407 44.8857 576.209 52.8467C576.109 56.9175 575.573 61.0284 574.778 65.039C572.691 75.4064 571.717 85.9944 568.497 96.1212C567.544 99.1091 567.047 102.217 566.311 105.265C564.98 110.64 563.608 115.994 562.257 121.348C562.197 121.589 562.098 121.809 562.078 122.05C560.528 133.741 558.918 145.432 557.447 157.143C556.851 161.915 556.553 166.728 556.056 171.521C555.996 172.162 555.619 172.764 555.38 173.406C555.082 172.784 554.546 172.162 554.526 171.541C554.486 169.134 554.665 166.728 554.705 164.322C554.744 161.414 554.705 158.526 554.705 155.619C554.128 141.742 556.632 128.306 559.455 114.75C562.714 99.1292 567.941 84.1094 571.638 68.6285M552.777 112.144C552.499 111.783 552.101 111.462 551.942 111.061C550.65 107.491 549.358 103.942 548.186 100.332C547.828 99.1893 548.424 98.5677 549.657 99.0089C550.75 99.4099 551.783 100.232 552.876 100.312C556.97 100.613 557.01 100.533 555.937 104.523C555.321 106.809 554.585 109.055 553.83 111.301C553.711 111.662 553.135 111.863 552.777 112.144ZM524.357 20.3809C524.337 19.7793 524.953 18.6162 525.171 18.6563C526.006 18.7566 527.218 19.0173 527.497 19.5988C529.464 23.6896 531.829 27.7002 532.962 32.0317C535.864 42.9606 537.354 54.1502 538.01 65.4601C538.249 69.6512 538.567 73.8222 538.845 78.0133C537.116 74.8048 534.81 71.7367 533.896 68.3076C530.657 56.2357 527.795 44.0836 525.112 31.8713C524.297 28.1614 524.496 24.211 524.337 20.3809M559.077 416.589C559.594 409.129 559.176 401.629 559.375 394.129C559.574 387.131 559.713 380.112 560.468 373.154C562.217 356.991 561.76 340.768 561.939 324.565C562.118 308.804 560.647 293.202 557.427 277.762C554.923 265.71 552.26 253.698 550.074 241.606C548.444 232.602 547.391 223.478 546.278 214.374C544.628 200.938 543.694 187.443 543.317 173.887C542.919 159.87 541.627 145.893 540.554 131.916C539.859 122.611 535.705 114.269 532.704 105.626C528.033 92.1708 522.25 78.9959 519.865 64.9187C517.798 52.566 517.242 39.9526 516.228 27.4596C516.089 25.735 517.202 23.9102 517.738 22.1255C518.394 23.7698 519.626 25.4342 519.587 27.0585C519.388 37.3858 522.369 47.0314 525.072 56.8172C527.457 65.42 529.862 73.9827 533.181 82.2646C533.717 83.6081 534.174 85.0319 535.009 86.1749C541.19 94.8178 543.694 104.904 546.198 114.991C546.954 118.039 547.57 121.167 548.822 124.015C550.67 128.226 550.312 132.477 549.975 136.809C548.862 151.768 548.464 166.708 549.796 181.688C550.69 191.794 551.187 201.941 551.406 212.068C551.684 224.18 552.797 236.272 555.261 248.023C558.183 261.92 562.635 275.496 566.49 289.212C567.722 293.584 569.332 297.875 570.425 302.287C570.863 304.091 570.505 306.137 570.306 308.042C568.696 324.666 568.259 341.23 569.511 357.954C570.604 372.372 573.009 386.85 571.3 401.369C570.028 412.137 568.199 422.845 566.212 433.494C564.94 440.352 563.012 447.11 561.184 453.847C560.627 455.913 559.475 457.818 558.521 459.763C558.342 460.104 557.765 460.244 557.249 460.565C556.772 460.144 556.096 459.803 555.738 459.262C552.479 454.188 549.299 449.075 546.059 444.001C545.006 442.337 544.867 440.973 546.854 439.81C555.698 434.657 558.381 425.994 559.037 416.589M486.834 238.959C483.574 231.8 483.137 224.08 482.183 215.978C482.481 214.254 482.819 212.128 483.177 210.002C485.462 211.627 485.005 214.133 485.303 216.439C486.257 223.839 487.291 231.239 488.285 238.638C488.344 239.079 488.145 239.561 488.066 240.042C487.649 239.681 487.052 239.42 486.834 238.959ZM496.036 249.347C495.062 242.428 493.591 235.59 492.478 228.712C491.504 222.776 490.709 216.82 489.974 211.747C490.053 210.123 489.914 209.321 490.212 208.739C490.371 208.398 491.484 208.097 491.743 208.318C492.458 208.9 493.054 209.722 493.512 210.544C497.725 218.184 500.786 226.245 501.382 235.069C502.475 251.653 503.29 268.277 506.748 284.6C506.887 285.261 506.589 286.003 506.49 286.705C506.092 286.124 505.516 285.582 505.297 284.941C501.402 273.31 497.804 261.599 496.075 249.387M468.49 256.084C469.185 256.686 470.06 257.167 470.557 257.909C474.194 263.283 477.731 268.718 481.309 274.132C481.706 274.734 482.044 275.375 482.442 275.977C486.019 281.191 488.921 281.211 492.935 276.077C494.823 273.651 494.923 273.611 495.857 276.198C497.824 281.592 500.547 286.765 500.885 292.681C500.945 293.644 501.104 294.586 501.282 296.21C500.448 296.431 499.235 297.133 498.778 296.792C492.776 292.461 486.377 288.671 482.004 282.314C477.374 275.576 472.186 269.219 469.483 261.318C469.245 260.636 468.788 260.015 468.669 259.313C468.49 258.25 468.529 257.167 468.47 256.104M445.455 515.47C446.012 518.057 446.608 520.684 446.688 523.311C446.787 527.161 446.588 531.052 446.27 534.922C444.561 555.396 443.309 575.91 444.144 596.465C444.66 609.038 446.509 621.451 451.974 633.061C453.485 636.29 455.611 638.576 458.274 640.722C462.209 643.89 466.244 643.83 470.318 641.484C475.148 638.696 479.361 635.167 482.163 630.154C487.47 620.609 491.305 610.442 494.207 599.954C497.168 589.225 501.123 578.958 505.198 568.631C509.332 558.143 515.512 549.039 520.7 539.273C525.211 530.771 530.617 522.69 534.552 513.926C538.666 504.762 542.084 495.437 542.124 484.789C542.164 470.672 539.143 457.477 534.413 444.483C531.452 436.321 527.874 428.4 524.655 420.339C519.388 407.084 515.135 393.508 511.915 379.611C508.914 366.677 507.443 353.482 505.277 340.427C503.469 329.579 499.573 319.652 491.504 311.571C485.562 305.635 480.196 299.058 474.869 292.541C467.675 283.717 464.316 273.149 462.031 262.16C461.931 261.699 462.388 261.138 462.607 260.616C462.945 260.937 463.402 261.198 463.581 261.579C464.217 262.882 464.813 264.206 465.29 265.569C470.398 279.887 478.944 291.498 491.683 299.84C492.697 300.502 493.69 301.184 494.704 301.805C500.726 305.595 503.886 310.629 504.78 318.148C505.854 327.192 508.994 335.976 510.882 344.959C513.604 357.954 515.93 371.028 518.593 384.023C522.389 402.552 528.212 420.439 535.904 437.685C540.813 448.714 546.954 459.021 554.685 468.306C555.997 469.89 556.056 471.233 555.46 472.918C552.717 480.899 549.895 488.86 547.252 496.881C545.523 502.135 544.33 507.59 542.422 512.783C537.871 525.236 533.181 537.649 528.212 549.942C526.702 553.712 523.621 556.86 522.21 560.63C518.911 569.493 514.081 577.535 509.669 585.776C503.071 598.089 495.777 610.021 489.119 622.313C485.582 628.85 482.7 635.769 479.639 642.567C475.207 652.453 470.895 662.379 466.542 672.285C465.727 674.15 464.674 674.391 463.521 672.706C461.196 669.337 458.851 665.969 456.764 662.459C448.099 647.901 440.268 632.921 437.625 615.876C436.711 609.94 436.75 603.864 436.174 595.282C436.87 586.719 437.744 575.65 438.678 564.6C440.049 548.217 441.461 531.854 442.911 515.49C442.971 514.728 443.567 514.007 443.905 513.285C444.442 514.027 445.257 514.708 445.435 515.511M406.044 574.827C408.628 579.159 411.172 583.531 413.617 587.962C417.83 595.582 420.752 595.683 425.66 588.183C428.383 584.032 429.457 579.4 429.616 574.466C429.874 566.526 430.232 558.584 430.53 550.643C430.311 550.623 430.073 550.603 429.854 550.563C431.166 540.296 432.458 530.009 433.849 519.742C434.067 518.097 434.703 516.513 435.339 514.969C435.538 514.468 436.333 514.207 436.85 513.826C437.168 514.388 437.764 514.969 437.744 515.49C437.267 522.449 437.088 529.467 436.095 536.366C434.028 550.684 433.253 565.102 431.861 579.48C431.027 588.163 430.887 596.765 430.748 605.448C430.709 608.336 429.516 608.918 427.171 607.173C419.718 601.678 413.915 594.68 409.364 586.639C407.356 583.089 405.826 579.279 404.137 575.569C403.978 575.229 404.256 574.707 404.335 574.266C404.932 574.446 405.826 574.446 406.064 574.827M421.964 445.766C420.414 448.493 418.963 451.301 417.194 453.867C408.608 466.381 399.705 478.653 388.476 488.96C377.883 498.706 367.091 508.251 356.637 518.158C351.589 522.95 347.574 528.926 342.208 533.278C336.802 537.649 335.312 543.464 333.98 549.46C332.41 556.519 330.701 563.698 330.522 570.857C330.363 577.515 331.357 584.453 333.225 590.87C337.041 604.065 341.512 617.019 347.932 629.312C353.417 639.799 358.664 650.367 365.501 660.013C376.909 676.135 388.376 692.218 400.042 708.16C405.369 715.419 412.186 721.174 420.076 725.546C428.94 730.459 437.824 728.213 443.011 719.49C447.383 712.131 450.185 704.23 449.689 695.446C449.331 688.949 448.913 682.432 448.794 675.935C448.675 669.478 445.952 663.763 444.064 657.807C443.567 656.223 442.772 654.639 441.798 653.295C436.432 645.875 431.166 638.396 425.501 631.217C417.134 620.609 409.165 609.74 403.143 597.548C401.016 593.236 398.532 589.065 396.684 584.653C395.491 581.806 394.935 578.638 394.458 575.549C394.219 573.985 394.776 572.301 394.994 570.676C395.829 572.18 396.962 573.604 397.479 575.208C402.765 591.532 411.748 605.168 425.998 614.833C429.854 617.46 432.08 620.609 433.233 625.06C436.373 637.293 441.361 648.803 447.383 659.832C450.265 665.106 453.723 670.099 457.261 674.972C460.997 680.126 461.176 685.139 459.427 691.275C455.134 706.335 451.775 721.656 447.781 736.816C446.628 741.188 444.581 745.318 442.931 749.55C442.236 751.314 441.004 751.475 439.453 750.693C426.098 743.955 413.438 736.395 404.176 723.982C395.69 712.612 386.27 701.944 377.883 690.534C372.059 682.613 367.309 673.869 362.003 665.547C353.318 651.911 344.99 638.095 338.253 623.356C333.92 613.891 330.522 604.065 328.515 593.838C327.441 588.423 327.461 582.809 327.104 578.878C327.541 562.735 328.972 548.357 331.993 534.12C332.827 530.169 334.696 527.442 337.716 524.675C353.338 510.377 368.72 495.818 383.964 481.14C396.445 469.128 408.608 456.775 420.93 444.583C421.328 444.182 422.023 444.062 422.58 443.821C422.381 444.463 422.302 445.184 421.964 445.746M382.951 708.501C374.285 699.758 366.594 690.313 362.003 678.662C365.541 680.367 367.508 683.615 369.118 686.884C371.801 692.318 375.199 697.131 379.075 701.723C380.725 703.688 381.738 706.175 382.951 708.501ZM361.665 678.221C360.492 677.218 359.062 676.376 358.366 675.113C355.663 670.18 353.199 665.126 350.655 660.093C355.285 665.527 360.055 670.902 361.665 678.221ZM347.276 653.435C344.851 651.831 343.659 649.485 343.182 646.677C345.785 648.161 346.302 650.949 347.276 653.435ZM342.884 646.236C341.115 644.933 340.479 643.108 340.459 640.982C341.274 642.727 342.069 644.472 342.884 646.236ZM410.476 349.01C410.397 353.342 410.655 357.733 410.079 361.984C408.449 374.157 406.76 386.349 404.514 398.421C403.282 405.058 404.951 411.395 405.289 417.832C405.528 422.264 409.085 425.512 413.656 426.796C418.247 428.079 421.447 425.893 424.15 422.384C425.223 420.98 426.654 419.858 427.946 418.634C426.833 421.943 426.277 425.673 424.369 428.42C419.718 435.118 414.491 441.415 409.304 447.731C407.475 449.957 406.084 449.576 405.11 447.049C404.594 445.706 404.236 444.282 403.878 442.898C399.148 424.009 397.638 404.838 399.506 385.467C399.963 380.694 401.354 376.002 402.507 371.329C404.355 363.869 406.362 356.43 408.39 349.01C408.529 348.529 409.363 348.248 409.88 347.887C410.099 348.268 410.496 348.669 410.476 349.05M402.944 279.346C391.039 295.709 378.479 311.611 367.25 328.436C360.214 338.984 354.252 350.474 352.741 363.589C351.986 370.146 353.397 376.523 353.974 382.98C354.769 391.863 356.06 400.627 356.1 409.63C356.16 421.081 354.232 432.21 353.318 443.5C352.602 452.303 350.873 461.267 353.835 470.131C355.802 476.006 359.558 479.014 365.481 478.152C373.689 476.989 379.81 472.757 382.652 464.636C386.806 452.745 389.509 440.773 389.211 427.799C388.754 408.748 388.714 389.537 393.345 370.788C393.683 369.404 393.742 367.9 393.742 366.456C393.742 358.696 396.445 351.777 400.301 345.26C400.837 344.378 401.931 343.816 402.765 343.115C402.865 344.278 403.222 345.501 403.024 346.624C402.725 348.268 402.01 349.852 401.513 351.457C397.2 365.554 393.921 379.731 392.888 394.631C391.556 413.822 395.273 432.15 399.605 450.458C400.619 454.71 400.042 457.297 397.181 460.044C391.795 465.218 386.389 470.351 381.202 475.745C368.164 489.301 354.351 501.975 339.962 514.027C339.267 514.608 338.392 514.969 337.597 515.45C337.478 514.388 337.08 513.245 337.319 512.262C338.849 505.444 339.903 498.425 342.248 491.888C348.389 474.703 349.84 457.096 348.707 439.028C348.25 431.609 349.005 424.089 349.204 416.629C349.641 399.704 350.198 382.779 350.456 365.855C350.615 354.725 350.456 343.596 350.198 332.466C350.118 328.797 351.092 326.11 353.815 323.543C358.346 319.251 362.241 314.258 366.793 309.967C375.716 301.565 384.958 293.503 394.001 285.201C398.115 281.411 402.07 277.441 406.084 273.53C405.091 275.496 404.236 277.581 402.944 279.346ZM410.814 267.394C410.715 267.535 410.616 267.675 410.516 267.815C410.596 267.675 410.695 267.535 410.794 267.394L411.053 267.113L410.834 267.394H410.814ZM453.266 80.4598C453.087 79.5173 452.789 78.5748 452.789 77.6123C452.789 76.9906 453.167 76.3489 453.385 75.7273C454.001 76.0281 454.836 76.1484 455.234 76.6297C460.858 83.6282 463.382 91.7898 464.117 100.653C466.164 125.539 462.567 149.663 455.671 173.546C448.556 198.251 438.479 221.613 426.654 244.313C425.939 245.697 424.866 246.9 423.931 248.183C424.309 245.917 424.269 243.431 425.283 241.526C428.761 234.928 430.271 227.469 434.604 221.212C436.452 218.545 437.287 214.976 437.883 211.707C438.817 206.654 440.924 201.961 441.878 196.868C442.792 191.955 445.276 187.363 447.025 182.61C448.854 177.637 450.682 172.664 452.431 167.65C456.585 155.779 459.864 143.687 460.997 131.134C461.315 127.564 461.216 123.835 460.62 120.305C458.314 107.01 455.73 93.755 453.246 80.4798M444.342 167.831C448.158 151.548 450.026 134.984 450.484 114.129C449.927 110.018 448.834 101.896 447.741 93.775C447.363 90.9074 446.986 88.0398 446.727 85.1522C446.688 84.6108 447.165 84.0292 447.403 83.4677C447.801 84.0092 448.238 84.5506 448.615 85.1121C448.754 85.3126 448.814 85.5533 448.854 85.7939C451.199 100.332 454.737 114.71 455.273 129.51C455.552 137.551 454.22 145.351 451.398 152.952C447.304 164.021 443.627 175.271 439.612 186.38C437.983 190.912 435.955 195.304 434.008 199.695C433.193 201.52 431.981 200.738 431.504 199.535C429.198 193.719 427.032 187.844 424.846 181.968C424.707 181.587 424.846 181.106 424.866 180.665C425.263 180.805 425.78 180.825 426.058 181.086C426.754 181.748 427.27 182.61 427.966 183.252C431.901 186.921 435.896 186.641 438.579 181.808C441.003 177.416 443.21 172.684 444.342 167.811M423.395 171.32C423.375 171.741 423.077 172.142 422.898 172.543C422.759 172.082 422.64 171.641 422.5 171.18C422.679 170.779 422.858 170.358 423.037 169.957C423.176 170.418 423.415 170.879 423.395 171.32ZM420.851 133.259C421.427 143.687 421.825 154.135 422.282 164.582L420.911 164.703C419.658 154.496 418.208 144.309 417.293 134.062C417.035 131.094 416.578 127.504 419.4 125.018C419.897 127.765 420.692 130.492 420.851 133.259ZM361.546 128.627C364.865 141.521 367.449 154.756 366.832 167.951C366.216 181.166 367.826 194.562 364.646 207.656C363.811 211.125 363.434 214.956 363.931 218.465C365.56 230.136 362.937 241.626 362.877 253.197C362.877 257.267 363.235 261.378 363.99 265.369C364.825 269.781 368.86 272.488 374.067 273.23C383.408 274.533 391.318 271.104 397.558 264.707C407.257 254.761 412.901 242.809 412.802 228.371C412.742 219.688 413.537 211.005 413.855 204.307C412.563 190.23 411.152 178.218 410.417 166.146C409.801 155.779 409.94 145.392 409.841 135.004C409.841 133.6 410.496 132.217 410.874 130.813C410.934 130.612 411.172 130.472 411.331 130.312C411.57 130.552 411.967 130.753 412.027 131.034C412.166 131.735 412.206 132.477 412.206 133.199C412.285 148.76 414.61 164.081 418.446 179.061C420.771 188.145 424.349 196.928 427.847 205.651C429.278 209.26 429.337 212.329 428.483 216.079C425.7 228.491 420.672 239.922 414.471 250.891C409.582 259.533 404.077 267.735 396.704 274.453C387.979 282.374 378.996 290.014 370.39 298.035C365.123 302.928 360.353 308.363 355.325 313.516C354.331 314.539 353.238 315.501 352.066 316.284C351.788 316.484 350.615 316.003 350.476 315.622C350.158 314.74 350.178 313.737 350.158 312.774C349.899 293.403 351.092 274.152 354.212 254.981C356.219 242.589 357.73 230.055 358.465 217.542C359.519 199.675 359.837 181.768 360.155 163.88C360.333 153.272 359.916 142.664 359.797 132.056C359.797 130.853 360.035 129.65 360.274 128.487C360.353 128.086 360.791 127.785 361.069 127.424C361.228 127.825 361.407 128.206 361.506 128.607M287.673 123.674C287.295 123.093 287.096 122.351 286.898 121.669C286.461 120.185 287.037 119.423 288.567 119.363C290.237 119.303 292.005 119.583 293.536 119.102C296.239 118.26 297.848 116.094 298.405 113.307C299.2 109.296 299.896 105.346 299.061 101.134C296.934 90.4061 296.338 79.5775 298.484 68.7488C298.584 68.2876 298.842 67.8665 299.041 67.4253C299.617 67.7662 300.492 67.9667 300.71 68.4681C301.505 70.2127 302.4 71.9974 302.678 73.8623C304.447 86.0546 305.659 98.2869 304.367 110.68C304.765 119.102 305.182 127.504 305.58 135.926C305.639 137.25 305.321 138.774 303.731 137.832C297.531 134.122 291.707 129.891 287.653 123.674M309.813 164.061C306.275 156.942 299.896 152.43 294.629 146.896C290.674 142.724 287.156 138.112 283.599 133.6C282.585 132.317 282.048 130.673 281.393 129.369C281.711 128.647 281.889 128.226 282.088 127.825C282.505 128.026 283.102 128.106 283.34 128.447C287.216 133.981 291.369 139.255 296.716 143.446C299.339 145.512 301.962 147.758 304.924 149.182C307.408 150.365 308.541 151.929 309.097 154.435C309.793 157.484 310.787 160.471 311.562 163.519C311.701 164.081 311.462 164.763 311.383 165.384C310.846 164.963 310.091 164.642 309.813 164.081M322.393 178.299C318.18 168.954 315.557 159.368 315.278 149.121C315.258 148.179 315.239 147.096 314.801 146.354C309.753 138.052 310.747 128.707 310.171 119.643C309.197 104.223 308.422 88.8019 307.428 73.3811C307.249 70.5135 306.295 67.7061 305.858 64.8585C305.599 63.2142 307.229 62.2516 308.72 63.0136C311.025 64.2168 312.059 66.2221 312.774 68.6887C314.96 76.1684 316.212 83.7685 315.875 91.5491C315.596 98.0463 314.881 104.523 314.324 111.021C313.43 121.488 314.483 131.796 317.007 141.922C318.935 149.643 320.744 157.443 323.407 164.903C325.494 170.759 328.455 176.394 331.675 181.748C334.815 186.982 340.34 187.162 344.195 182.389C345.785 180.424 347.018 177.817 347.475 175.331C348.369 170.618 348.866 165.765 349.025 160.953C349.283 152.992 348.906 144.99 349.244 137.029C349.482 131.274 350.357 125.519 351.132 119.804C351.291 118.601 352.264 117.518 352.861 116.375C353.377 117.678 354.232 118.942 354.351 120.265C354.649 123.373 354.669 126.522 354.689 129.67C354.729 139.095 354.689 148.5 354.689 157.925C354.431 171.902 355.921 185.899 353.616 199.856C353.079 203.084 354.212 206.573 354.113 209.922C354.053 212.248 353.199 214.554 352.702 216.861C350.834 215.537 348.548 214.534 347.157 212.81C338.213 201.821 328.376 191.534 322.413 178.299M295.782 220.931C299.538 226.747 301.664 233.204 300.889 240.122C299.26 254.32 296.119 268.196 290.992 281.572C289.72 284.921 289.024 288.51 288.229 292.039C287.573 294.867 287.375 297.795 286.58 300.582C281.87 317.046 281.154 333.89 281.611 350.855C281.85 359.538 282.327 368.201 282.724 376.884C282.784 378.087 282.943 379.31 283.32 380.453C287.494 393.508 289.104 407.365 295.185 419.817C300.551 430.807 307.885 440.312 317.365 447.932C320.664 450.599 324.778 452.343 328.713 454.028C332.35 455.572 337.299 452.043 338.75 446.989C339.545 444.222 340.062 441.314 340.221 438.447C340.459 434.115 340.28 429.744 340.28 425.392C340.519 425.392 340.757 425.352 340.996 425.352C339.883 412.859 338.929 400.326 337.577 387.853C336.166 374.658 334.378 361.523 332.688 348.348C332.39 345.962 331.794 343.596 331.257 341.25C328.753 330.321 327.998 319.372 329.628 308.162C331.933 292.4 334.099 276.599 335.57 260.737C336.325 252.615 335.669 244.333 335.252 236.132C334.676 224.481 332.072 213.191 328.197 202.202C327.998 201.66 328.276 200.938 328.316 200.297C328.912 200.678 329.647 200.938 330.065 201.46C334.616 207.035 339.108 212.669 343.639 218.284C344.235 219.026 344.712 219.989 345.467 220.49C351.589 224.541 352.185 230.457 351.311 237.054C349.581 250.229 347.773 263.384 346.421 276.599C345.448 286.204 344.672 295.89 344.653 305.535C344.633 320.515 345.388 335.474 345.686 350.454C345.766 354.545 345.428 358.656 345.229 362.746C345.189 363.709 344.633 364.732 344.851 365.594C346.739 373.314 344.354 380.955 344.513 388.675C344.732 398.782 343.381 408.909 343.579 418.995C343.738 426.776 343.361 434.376 341.731 441.956C343.619 446.989 341.393 452.404 343.261 457.577C344.096 459.863 343.42 462.831 343.003 465.398C342.248 470.13 341.393 474.903 340.141 479.515C339.366 482.323 338.412 482.423 335.908 480.959C329.171 477.029 323.327 471.935 318.776 465.699C311.542 455.772 304.089 445.866 298.266 435.118C291.032 421.803 285.308 407.685 281.452 392.826C279.008 383.401 278.411 373.796 277.179 364.25C275.987 354.926 275.192 345.541 274.297 336.156C273.96 332.567 273.96 329.057 274.953 325.408C279.803 307.46 285.089 289.673 290.495 271.886C295.006 257.087 297.054 241.646 294.47 226.025C294.231 224.621 293.556 223.278 293.317 221.874C293.178 221.052 293.476 220.169 293.576 219.307C294.331 219.848 295.305 220.229 295.782 220.951M266.705 248.404C267.779 254.079 268.951 259.734 269.766 265.469C270.183 268.417 270.521 271.164 273.065 273.149C276.782 276.017 280.121 275.175 281.174 270.603C282.108 266.632 282.506 262.501 282.764 258.431C283.022 254.34 282.824 250.229 282.824 246.118H282.664C282.664 242.248 282.426 238.377 282.724 234.527C283.042 230.477 283.797 226.446 284.553 222.435C284.692 221.673 285.705 221.072 286.301 220.39C286.858 221.152 287.772 221.834 287.931 222.676C289.362 230.015 290.495 237.455 289.799 244.935C288.806 255.483 287.335 265.93 283.817 276.057C279.703 287.888 276.245 299.94 272.489 311.892C272.27 312.614 271.873 313.296 271.575 313.977C271.435 313.276 271.257 312.574 271.137 311.872C268.971 299.259 266.924 286.665 266.805 273.791C266.725 265.349 266.089 256.927 265.712 248.484C265.692 248.003 265.791 247.522 265.831 247.04C266.129 247.502 266.626 247.923 266.725 248.404M235.125 312.634C237.868 317.707 240.769 322.741 243.115 327.995C245.44 333.168 248.52 337.68 252.515 341.59C254.503 343.536 256.649 343.175 257.663 340.568C258.795 337.7 259.312 334.592 260.008 331.985C259.173 327.614 258.318 323.844 257.762 320.033C256.768 313.376 255.933 306.678 255.079 300.001C254.721 297.133 254.383 294.245 254.204 291.358C253.191 276.057 254.562 260.917 257.186 245.857C257.265 245.396 257.364 244.855 257.623 244.494C258 243.952 258.537 243.551 259.014 243.09C259.213 243.531 259.531 243.952 259.57 244.393C260.008 249.928 260.664 255.463 260.743 260.997C261.021 282.795 264.42 304.212 267.679 325.688C269.528 337.841 270.422 350.133 271.714 362.365C271.754 362.787 271.475 363.589 271.296 363.609C270.641 363.649 269.806 363.669 269.349 363.308C266.586 360.982 263.665 358.796 261.26 356.129C249.792 343.335 239.656 329.619 233.336 313.416C233.038 312.654 233.257 311.671 233.237 310.789C233.873 311.411 234.708 311.912 235.105 312.654M218.351 183.111C210.024 196.106 201.418 208.9 193.071 221.894C187.526 230.517 184.306 240.262 181.961 250.109C176.953 271.204 175.323 292.32 181.027 313.857C184.167 325.668 185.757 337.981 186.194 350.414C186.492 359.037 188.917 367.579 189.772 376.202C191.66 395.032 195.794 413.4 200.424 431.649C204.658 448.273 210.381 464.476 217.834 479.936C223.995 492.77 230.315 505.544 237.093 518.037C243.79 530.39 253.012 540.978 262.095 551.606C266.01 556.178 270.303 560.409 274.297 564.921C279.187 570.456 285.129 574.486 291.846 577.254C299.856 580.563 306.494 579.079 310.349 572.842C312.317 569.654 313.49 565.804 314.364 562.114C315.08 559.106 314.98 555.857 314.96 552.729C314.821 535.082 315 517.416 314.304 499.789C313.688 484.188 310.568 469.168 300.73 456.314C296.775 451.16 293.258 445.646 289.481 440.352C284.135 432.852 280.26 424.63 276.643 416.128C272.091 405.479 266.407 395.353 261.459 384.885C256.907 375.26 250.548 366.737 245.42 357.493C239.12 346.122 232.959 334.672 226.877 323.182C225.764 321.076 225.168 318.65 224.631 316.304C223.836 312.814 223.3 309.265 223.578 305.435C224.969 308.463 226.4 311.471 227.772 314.499C229.759 318.87 231.627 323.302 233.674 327.654C240.352 341.851 251.124 352.961 261.22 364.571C262.015 365.474 262.81 366.557 263.843 367.018C272.886 371.129 273.86 379.551 275.251 387.933C275.947 392.184 277.616 396.255 278.709 400.446C282.366 414.323 287.911 427.397 295.006 439.81C302.539 453.005 310.33 466.1 321.36 476.748C324.798 480.077 328.634 483.065 332.569 485.792C335.63 487.897 336.425 490.444 335.749 493.853C334.616 499.528 333.583 505.223 332.41 510.898C329.866 523.171 327.203 535.423 324.719 547.716C324.003 551.265 323.904 554.935 323.228 558.504C321.022 570.075 322.254 581.686 323.228 593.196C323.804 599.834 326.587 606.25 328.236 612.808C328.952 615.695 329.329 618.683 329.846 621.631C328.256 619.365 326.607 617.119 325.116 614.793C317.107 602.2 306.871 591.913 294.37 583.831C287.514 579.399 280.896 574.647 274.158 570.035C272.568 568.952 271.078 567.608 269.329 566.886C262.651 564.119 257.682 559.106 253.29 553.752C245.4 544.066 237.768 534.2 232.541 522.589C225.605 507.209 218.49 491.888 210.6 476.989C203.286 463.172 196.291 449.115 187.248 436.281C185.062 433.193 183.531 430.185 185.737 426.315C186.373 425.192 186.334 423.427 186.035 422.083C182.379 405.379 183.273 388.434 183.332 371.57C183.372 359.558 180.948 348.108 177.35 336.758C173.395 324.285 171.567 311.451 170.831 298.336C170.156 286.044 173.038 274.333 174.965 262.461C176.973 250.068 179.715 237.816 181.782 225.423C182.537 220.891 184.286 217.101 187.327 213.913C196.251 204.508 203.425 193.519 213.482 185.137C215.827 183.171 217.357 180.264 219.365 177.857C220.597 176.373 221.948 174.97 223.26 173.546C221.65 176.795 220.259 180.184 218.311 183.192M244.347 86.7965C244.307 86.4556 244.685 85.834 245.003 85.7538C245.34 85.6535 246.076 85.8942 246.195 86.1749C247.229 88.6013 248.52 91.0077 249.037 93.5544C251.005 103.441 250.707 113.427 247.586 122.912C243.075 136.628 239.16 150.706 230.673 162.757C229.958 163.78 228.944 164.582 228.03 165.465C230.693 158.366 233.555 151.327 235.92 144.128C240.988 128.768 246.513 113.467 245.519 96.8632C245.321 93.4943 244.704 90.1655 244.347 86.7965ZM162.882 108.554C166.002 108.153 167.493 110.68 169.182 112.464C172.362 115.793 174.508 119.744 175.88 124.276C180.411 139.135 182.438 154.435 184.545 169.736C185.042 173.325 185.459 176.935 186.314 180.444C187.884 186.861 193.21 189.428 198.993 186.24C201.835 184.695 204.936 182.45 206.367 179.702C213.025 166.908 219.981 154.135 225.188 140.719C229.6 129.369 232.76 117.377 234.887 105.245C235.582 101.235 235.483 97.0637 235.841 92.9929C235.94 91.8098 236.337 90.6267 236.715 89.4837C236.814 89.1829 237.391 88.7818 237.629 88.842C238.027 88.9623 238.583 89.3834 238.623 89.7443C239.259 94.0357 239.796 98.327 240.272 101.917C238.842 114.71 236.198 126.461 232.303 137.892C230.514 143.126 228.567 148.319 226.42 153.433C220.676 167.169 212.23 179.041 201.736 189.528C197.324 193.94 193.409 198.813 189.255 203.485C188.46 204.368 187.705 205.35 186.791 206.092C185.101 207.436 183.631 206.714 183.472 204.468C182.995 198.211 183.332 191.774 181.941 185.718C178.046 168.773 178.106 151.147 172.938 134.503C170.871 127.865 167.652 121.609 165.048 115.152C164.193 113.006 163.597 110.76 162.882 108.554ZM75.8122 111.903C75.6134 111.382 75.9911 110.579 76.2494 109.978C76.309 109.858 77.1835 109.978 77.5611 110.178C81.059 112.103 83.5036 115.011 85.1134 118.641C90.4198 130.592 94.6531 142.945 96.4418 155.939C98.5683 171.46 104.014 185.818 110.215 200.016C117.23 216.099 126.81 230.517 137.721 244.053C141.159 248.324 145.253 252.194 149.486 255.663C155.508 260.596 164.571 258.35 167.592 250.068C170.851 241.145 173.077 232.101 173.216 222.536C173.316 216.018 174.011 209.481 173.952 202.964C173.912 197.189 173.614 191.353 172.66 185.658C171.467 178.519 169.242 171.561 167.89 164.462C165.744 153.272 161.928 142.584 158.827 131.655C157.257 126.101 156.184 120.385 155.012 114.73C154.872 114.029 155.488 113.146 155.747 112.364C156.184 112.845 156.701 113.287 157.039 113.828C157.297 114.209 157.218 114.811 157.476 115.192C168.526 131.555 170.673 150.525 173.077 169.435C173.614 173.747 174.29 178.038 174.926 182.349C175.999 189.749 177.072 197.128 178.145 204.508C178.185 214.615 176.217 224.38 174.508 234.126C172.342 246.479 169.858 258.771 167.413 271.064C166.598 275.175 165.624 275.716 162.305 273.069C155.369 267.515 148.552 261.779 141.994 255.784C137.562 251.733 133.786 246.98 129.493 242.789C118.781 232.281 112.003 219.247 106.101 205.711C101.967 196.206 98.31 186.48 94.3152 176.915C90.1217 166.828 87.3393 156.521 86.5642 145.472C85.8289 135.084 82.2316 125.198 77.74 115.753C77.1239 114.45 76.2892 113.226 75.7724 111.903M27.1598 148.901C26.8418 148.199 26.8815 146.755 27.3188 146.434C27.8951 145.993 29.0677 146.174 29.9422 146.314C30.6179 146.414 31.3533 146.755 31.8899 147.196C35.6461 150.184 39.621 152.972 43.0394 156.32C49.7172 162.878 55.9577 169.916 62.6554 176.474C65.3583 179.121 68.6574 181.266 71.9367 183.212C78.217 186.921 83.3048 183.653 82.8278 176.494C82.0527 172.964 81.4168 169.395 80.4429 165.926C77.0444 153.593 73.4273 141.321 70.1878 128.968C69.4127 126 69.671 122.732 69.5716 119.603C69.5716 119.062 70.148 118.5 70.4461 117.939C70.9827 118.32 71.7181 118.601 72.0162 119.122C76.4084 127.223 79.3498 135.826 80.7808 144.99C82.0925 153.333 83.5632 161.675 85.5904 169.856C86.7232 174.468 89.1081 178.76 90.8571 183.232C92.606 187.703 94.2953 192.215 95.9847 196.727C96.6008 198.372 95.6071 199.154 94.2755 198.913C92.4073 198.592 90.5391 197.991 88.8299 197.168C80.6218 193.218 72.6124 188.867 64.2851 185.237C53.3343 180.464 45.4044 172.243 37.9317 163.339C35.1493 160.01 32.3867 156.661 29.7236 153.232C28.6901 151.909 27.8156 150.425 27.1598 148.901ZM27.6368 159.79H27.915C27.915 159.79 27.915 159.79 27.915 159.81H27.6368V159.79ZM138.774 350.273C142.073 355.307 145.134 360.48 148.513 365.474C150.401 368.261 152.547 370.888 154.872 373.314C157.436 375.981 160.994 375.44 162.564 372.111C163.478 370.206 164.054 367.96 164.134 365.835C164.75 349.953 166.976 334.111 163.279 318.229C160.715 307.22 156.919 296.872 149.725 288.209C143.127 280.268 135.912 272.849 128.936 265.228C119.814 255.262 111.288 244.835 104.352 233.184C101.192 227.89 96.7796 224.1 92.1688 220.129C80.2243 209.822 65.9943 203.164 53.2349 194.201C45.0666 188.445 38.1105 181.527 32.5656 173.245C29.9422 169.335 27.5771 165.044 28.0541 159.93C33.9966 166.788 39.5812 174.007 46.0404 180.324C50.2538 184.415 55.5006 187.703 60.7872 190.35C72.3541 196.126 84.1793 201.42 96.0244 206.593C99.8403 208.258 102.185 210.624 103.716 214.494C105.206 218.284 107.234 221.914 109.459 225.323C114.945 233.745 119.854 242.508 127.625 249.306C133.189 254.179 137.701 260.295 143.027 265.489C146.962 269.319 151.474 272.548 155.707 276.077C158.649 278.524 161.689 280.89 164.412 283.577C165.187 284.359 165.128 286.164 165.167 287.527C165.644 300.241 164.829 313.055 168.705 325.508C171.269 333.77 173.296 342.212 175.422 350.614C177.768 359.839 177.609 369.284 177.708 378.709C177.807 389.337 177.907 399.965 178.284 410.573C178.443 414.644 179.437 418.694 179.954 422.765C180.013 423.267 179.497 423.908 179.099 424.329C179 424.45 178.145 424.109 177.907 423.788C171.249 414.945 163.816 406.562 158.211 397.077C149.606 382.579 143.186 366.877 137.005 351.156C136.767 350.534 136.787 349.812 136.687 349.13C137.403 349.511 138.397 349.712 138.794 350.314M93.5799 288.991C102.662 296.812 111.447 305.034 118.403 314.84C121.841 319.713 124.027 325.468 126.73 330.882C123.054 326.731 119.178 322.741 115.78 318.389C108.247 308.784 101.291 298.677 92.3079 290.295C91.7117 289.733 91.5129 288.731 91.1751 287.888C92.0098 288.229 92.9638 288.41 93.5997 288.971M8.06052 326.491C7.82203 326.31 7.88165 325.708 7.82203 325.307C8.21951 325.348 8.776 325.247 9.01449 325.468C10.7436 327.192 12.4329 328.977 14.1222 330.742C12.095 329.338 10.0678 327.934 8.08039 326.491M20.6807 327.353C18.8324 326.31 17.2226 324.786 15.573 323.402C15.2749 323.162 15.2749 322.56 15.1358 322.119C15.573 321.999 16.0898 321.638 16.4276 321.778C20.2037 323.242 24.3376 324.164 27.6368 326.39C38.8658 333.95 50.8699 339.866 63.4503 344.598C74.9179 348.91 86.7033 351.978 99.1844 351.236C106.558 350.795 111.884 344.237 110.036 336.978C109.459 334.712 108.247 332.527 106.975 330.501C100.019 319.412 91.0757 310.027 82.1521 300.562C76.3885 294.466 71.3603 287.648 66.2129 280.99C65.1595 279.647 64.1062 276.639 64.7223 275.957C66.4116 274.132 68.1208 276.398 69.3928 277.421C75.375 282.213 81.5758 286.826 86.9617 292.26C96.4219 301.805 105.405 311.832 112.739 323.262C115.72 327.914 119.178 332.326 122.974 336.317C126.452 339.966 128.022 344.418 130.049 348.77C131.063 350.955 129.97 351.958 128.241 352.58C126.452 353.221 124.584 353.943 122.716 354.084C112.937 354.826 103.159 355.367 93.3811 355.989C79.3697 355.908 66.3719 351.978 54.0895 345.621C42.8208 339.806 31.7905 333.489 20.7205 327.293M15.0563 331.504C16.368 332.306 17.6797 333.108 18.9914 333.91C17.1828 333.91 15.7121 333.389 15.0563 331.504ZM53.5529 355.688C42.2643 350.474 31.6116 344.077 21.4956 336.818C21.1776 336.597 20.9987 336.196 20.8 335.855C22.9067 336.677 25.1525 337.239 27.0604 338.402C41.8469 347.366 57.6272 354.104 73.785 359.999C74.5999 360.3 75.3153 360.902 76.0706 361.363C75.1365 361.443 74.2222 361.583 73.2881 361.603C66.0936 361.764 59.8133 358.575 53.5529 355.688ZM85.1929 362.847C84.2588 362.787 83.3446 362.606 82.4105 362.486C83.2651 362.406 84.1395 362.285 84.9941 362.265C86.1469 362.225 87.3195 362.265 88.492 362.265C88.492 362.466 88.492 362.666 88.492 362.887C87.3989 362.887 86.286 362.927 85.1929 362.887M103.497 474.141C118.641 495.859 138.734 511.44 162.127 522.97C174.17 528.906 186.373 534.561 198.616 540.055C202.75 541.9 207.261 542.903 211.673 544.066C213.482 544.547 215.509 544.708 217.357 544.447C223.538 543.565 226.221 540.055 225.088 533.839C224.452 530.33 223.379 526.7 221.69 523.592C213.561 508.813 205.373 494.054 196.768 479.555C190.746 469.409 183.849 459.783 177.648 449.737C169.679 436.822 162.027 423.728 155.528 409.931C151.116 400.566 145.929 391.563 140.801 382.559C135.952 374.056 128.181 368.762 119.635 364.692C117.568 363.709 114.985 363.729 112.62 363.488C110.235 363.248 107.83 363.308 105.445 363.127C104.908 363.087 104.411 362.626 103.895 362.365C104.332 362.185 104.769 361.864 105.206 361.844C107.114 361.724 109.042 361.503 110.95 361.664C117.25 362.225 123.352 361.182 129.413 359.618C133.686 358.535 135.058 359.077 136.807 363.007C139.947 370.026 142.59 377.265 146.028 384.143C152.706 397.498 159.285 410.914 169.381 422.204C181.444 435.699 192.037 450.258 199.252 467.123C201.14 471.534 204.022 475.485 206.128 479.816C211.912 491.748 217.298 503.86 223.24 515.691C230.137 529.467 237.411 543.063 247.229 555.055C247.686 555.617 247.666 556.599 247.884 557.381C247.189 557.341 246.473 557.421 245.817 557.221C231.389 552.769 216.841 548.919 202.054 545.73C193.23 543.825 184.823 539.975 176.217 536.987C174.19 536.285 172.203 535.323 170.116 534.922C153.402 531.713 139.152 523.973 127.028 511.921C119.138 504.1 111.467 496.099 105.524 486.674C100.119 478.072 94.9909 469.248 91.4732 459.603C95.5276 464.415 99.9198 468.987 103.517 474.121M89.4659 457.096C89.4659 457.096 89.4659 457.216 89.4858 457.256C89.3665 457.076 89.2671 456.895 89.1479 456.695C89.2473 456.815 89.4062 456.936 89.446 457.076M79.33 440.853C79.7871 441.334 80.1249 441.936 80.4429 442.517C80.4429 442.558 79.7473 443.079 79.7274 443.059C79.2902 442.558 78.853 442.056 78.535 441.475C78.3561 441.134 78.3362 440.713 78.2965 440.312C78.6741 440.472 79.0716 440.572 79.33 440.853ZM59.5152 412.859C60.1711 412.859 61.0654 412.578 61.4629 412.919C63.4702 414.543 65.8353 416.007 67.2066 418.113C70.7244 423.487 73.9043 429.102 76.9649 434.777C77.7996 436.321 77.7996 438.306 78.1375 440.111C77.9388 440.051 77.74 439.991 77.6406 439.85C71.7181 431.508 65.7955 423.146 59.9326 414.764C59.5947 414.283 59.6345 413.501 59.5152 412.859ZM53.5728 510.257C51.9033 509.635 50.5121 508.251 48.9818 507.209C50.5916 504.882 52.8971 505.925 54.7255 506.386C61.0058 507.971 67.1271 510.136 73.4074 511.6C82.4701 513.726 91.5527 515.831 100.735 517.255C109.241 518.559 112.182 514.247 109.042 505.945C106.101 498.165 101.251 491.487 96.0045 485.23C87.3194 474.843 79.6678 463.814 73.149 451.922C69.6909 445.626 65.1993 439.891 61.4033 433.774C58.3625 428.881 55.6 423.788 52.8176 418.735C52.5393 418.213 52.8573 417.371 52.8971 416.669C53.4933 416.829 54.2286 416.809 54.6261 417.17C55.8583 418.313 57.0906 419.497 58.0445 420.86C62.3374 426.936 66.6104 433.032 70.7442 439.209C76.7463 448.193 82.7682 457.196 88.5119 466.361C91.8508 471.655 94.4543 477.41 97.7932 482.684C101.768 488.98 105.703 495.397 110.533 501.032C116.455 507.951 123.292 514.067 129.692 520.564C130.328 521.226 130.785 522.068 131.341 522.81C130.328 523.291 129.374 524.013 128.32 524.173C124.544 524.775 120.748 525.196 117.23 525.657C101.43 523.672 86.0475 521.406 71.2411 516.253C65.3583 514.207 59.4159 512.382 53.5728 510.237M375.617 722.017C371.145 717.745 367.548 712.512 363.891 707.438C353.02 692.378 344.096 676.115 335.709 659.531C328.515 645.334 321.002 631.297 311.184 618.724C301.843 606.732 292.085 594.921 280.22 585.536C269.269 576.873 256.43 571.037 242.737 567.849C233.654 565.723 224.353 564.62 215.211 562.735C207.738 561.191 200.186 559.627 192.952 557.241C177.271 552.067 161.192 547.896 146.287 540.557C139.629 537.288 132.553 536.586 125.379 536.005C114.17 535.062 102.901 534.521 91.7713 532.997C78.8927 531.252 66.5508 527.242 55.1031 520.865C52.0425 519.16 49.4787 516.493 46.6963 514.247L46.3981 514.067L46.6168 514.207C63.8081 520.945 81.2975 526.78 99.5422 529.909C108.764 531.493 118.045 532.576 127.426 531.633C129.314 531.433 131.242 531.132 133.03 530.49C137.562 528.886 141.616 528.986 145.949 531.733C154.157 536.947 163.716 538.832 172.819 541.82C178.284 543.605 183.77 545.309 189.275 546.934C200.981 550.403 212.747 553.752 224.433 557.281C233.356 559.968 242.161 563.136 251.144 565.603C261.578 568.471 270.223 574.286 278.709 580.723C283.857 584.633 289.541 587.802 294.927 591.411C304.824 598.029 313.37 605.89 319.174 616.618C326.507 630.174 334.298 643.469 341.811 656.925C345.209 663.021 348.17 669.398 351.787 675.373C355.901 682.171 360.433 688.709 364.924 695.266C373.828 708.26 384.362 719.771 396.584 729.637C403.501 735.212 410.635 740.506 417.572 746.04C418.724 746.963 419.539 748.326 420.473 749.529C404.315 742.371 388.575 734.389 375.637 722.037M422.262 751.094C421.765 750.733 421.348 750.251 420.93 749.81C421.547 749.81 422.202 749.77 422.679 750.011C423.097 750.231 423.236 750.973 423.494 751.495C423.077 751.374 422.6 751.334 422.262 751.094ZM458.235 752.858C458.513 752.718 458.831 752.618 459.149 752.517C458.91 752.758 458.672 753.019 458.394 753.239C458.235 753.38 457.956 753.38 457.738 753.44C457.897 753.239 458.016 752.979 458.215 752.878" fill="white" fill-opacity="0.5"/>
</svg>
