<svg width="41" height="40" viewBox="0 0 41 40" fill="none" xmlns="http://www.w3.org/2000/svg">
<path d="M40.3511 14.5087L40.3343 14.4581C39.1568 11.168 36.9998 8.83667 34.0963 7.715C33.0065 7.29367 31.8291 7.05585 30.6125 6.99593C30.1777 5.84617 29.5843 4.78817 28.8454 3.87248C26.8842 1.4475 24.0087 0.108609 20.5249 0H20.4988H20.4727C16.9908 0.106737 14.1134 1.44563 12.1541 3.87061C11.4133 4.78629 10.8218 5.8443 10.387 6.99593C9.17228 7.05772 7.99298 7.29554 6.90324 7.715C3.99976 8.83479 1.84455 11.1661 0.665246 14.4563L0.648453 14.5068C-0.325592 17.8625 0.05507 21.0215 1.74565 23.6412C2.38196 24.6281 3.19926 25.5157 4.14905 26.2834C3.83743 27.4556 3.70121 28.6429 3.76092 29.8057C3.92699 32.9236 5.4683 35.7024 8.2225 37.8447L8.26542 37.8765C10.3236 39.2809 12.4975 39.9944 14.6676 39.9944C15.5353 39.9944 16.403 39.8802 17.2613 39.6498C18.3865 39.3483 19.4744 38.8484 20.4932 38.1836C21.5121 38.8502 22.6037 39.3521 23.7326 39.6554C24.5928 39.8858 25.4605 40 26.3282 40C28.4964 40 30.6722 39.2865 32.7304 37.8802L32.7733 37.8503C35.5275 35.7081 37.0707 32.9292 37.2349 29.8113C37.2964 28.6466 37.1584 27.4575 36.8449 26.2834C37.7965 25.5157 38.612 24.6262 39.2501 23.6393C40.9445 21.0196 41.3214 17.8606 40.3492 14.5049M20.4951 36.0489C19.1124 34.9235 17.9275 33.4217 17.0841 31.6745C15.6099 28.6185 15.0912 25.5512 15.4793 22.9896C16.765 26.4295 20.3234 28.7252 24.8652 29.2908C24.6077 30.0885 24.2886 30.8862 23.9099 31.6708C23.0646 33.4217 21.8778 34.9235 20.4932 36.0508M11.4469 14.2503C11.1073 12.3477 11.1838 10.4433 11.6373 8.72244C13.4137 8.81981 15.2498 9.33477 16.9553 10.2486C19.9148 11.8384 22.1204 13.9919 23.3146 16.2726C20.26 14.2877 16.0596 14.5424 12.0758 16.7576C11.8127 15.9543 11.6018 15.1135 11.4469 14.2484M29.5451 14.2484C28.948 17.5853 27.5746 20.3736 25.7628 22.2162C26.7144 18.6845 25.1769 14.7484 21.8479 11.6249C22.5309 11.1249 23.2642 10.6624 24.0386 10.2467C25.7423 9.33102 27.5765 8.81607 29.3529 8.72057C29.8064 10.4396 29.8847 12.344 29.5451 14.2484ZM20.4951 17.2239C22.5309 17.2239 24.186 18.8868 24.186 20.9279C24.186 22.969 22.5328 24.6318 20.4988 24.6337H20.4951C18.4593 24.6337 16.8042 22.9708 16.8042 20.9279C16.8042 18.8849 18.4612 17.2239 20.4951 17.2239ZM16.987 16.7801C14.1302 19.0778 13.0591 23.1862 13.9343 27.6972C13.0909 27.6991 12.2306 27.641 11.3611 27.5212C9.44658 27.2572 7.66084 26.5905 6.16805 25.6224C6.80808 23.9483 7.86609 22.3454 9.26745 20.9953C11.7026 18.6489 14.4437 17.2052 16.987 16.7801ZM20.8758 26.3564C24.535 26.1935 27.8116 23.5064 29.7523 19.3455C30.4333 19.8399 31.0939 20.3942 31.7246 21.0028C33.1241 22.351 34.184 23.9521 34.8221 25.6243C33.3294 26.5924 31.5436 27.2572 29.631 27.5231C26.2666 27.9875 23.1858 27.5287 20.8758 26.3583M13.492 4.96231C15.1211 2.94555 17.5431 1.8295 20.497 1.73213C23.4508 1.8295 25.8729 2.94743 27.5019 4.96231C28.002 5.58214 28.4237 6.27873 28.7614 7.03338C26.8936 7.20566 24.9921 7.77492 23.225 8.72431C22.2529 9.24676 21.3385 9.83662 20.497 10.4827C19.6685 9.84598 18.756 9.25425 17.7689 8.72618C16.0018 7.77679 14.1004 7.20753 12.2306 7.03525C12.5684 6.2806 12.9901 5.58214 13.492 4.96231ZM3.19179 22.7012C1.78484 20.5234 1.47509 17.8681 2.29426 15.018C3.29816 12.2279 5.1063 10.2617 7.52089 9.33102C8.25795 9.04639 9.04166 8.86288 9.85523 8.77112C9.44472 10.6006 9.39807 12.5818 9.75074 14.5555C9.9448 15.6435 10.2228 16.6958 10.5718 17.6958C9.71528 18.2875 8.87746 18.9729 8.07322 19.7481C6.62148 21.1488 5.49255 22.7948 4.75176 24.5326C4.14718 23.9783 3.6191 23.3659 3.18993 22.7012M16.8135 37.9795C14.3149 38.6499 11.7026 38.1256 9.25439 36.4608C6.9219 34.6388 5.61571 32.3075 5.4795 29.7158C5.43845 28.9331 5.50189 28.1373 5.66423 27.3414C7.27458 28.302 9.14243 28.9612 11.1241 29.2346C12.0571 29.3638 12.9845 29.4293 13.8951 29.4293C14.05 29.4293 14.2011 29.4256 14.356 29.4218C14.6527 30.4199 15.0427 31.4274 15.5278 32.4311C16.4011 34.24 17.6047 35.8204 19.0154 37.0619C18.3082 37.4645 17.5692 37.7754 16.8116 37.9776M35.507 29.7196C35.3707 32.3131 34.0646 34.6444 31.7321 36.4646C29.2858 38.1293 26.6715 38.6536 24.1711 37.9832C23.4116 37.7791 22.6708 37.4664 21.9599 37.0619C23.3743 35.8204 24.5816 34.2362 25.4568 32.4217C25.9326 31.4349 26.3226 30.4274 26.6249 29.42C26.7797 29.4237 26.9365 29.4256 27.0932 29.4256C27.9908 29.4256 28.9163 29.3619 29.8605 29.2308C31.8403 28.9574 33.7082 28.2983 35.3185 27.3395C35.479 28.1354 35.5462 28.935 35.5051 29.7177M37.7965 22.6956C37.3674 23.3603 36.8393 23.9745 36.2328 24.5288C35.492 22.7929 34.3631 21.1469 32.9132 19.75C32.1202 18.986 31.2824 18.3006 30.4147 17.6977C30.7599 16.7108 31.0398 15.6584 31.2357 14.5518C31.5884 12.5799 31.5417 10.5969 31.1312 8.76738C31.9448 8.85726 32.7304 9.04452 33.4674 9.32728C35.882 10.2598 37.6883 12.2241 38.6941 15.0143C39.5151 17.8643 39.2054 20.5215 37.7965 22.6993" fill="white"/>
</svg>
