<svg width="199" height="104" viewBox="0 0 199 104" fill="none" xmlns="http://www.w3.org/2000/svg">
<g clip-path="url(#clip0_1107_24)">
<path d="M28.4888 67.5098H25.7158V88.1921H28.4888V67.5098Z" fill="white"/>
<path d="M60.1126 87.6598C58.5876 87.1736 57.3981 86.5672 56.5391 85.8329L57.7896 83.6298C58.6486 84.313 59.7289 84.8682 61.0327 85.3006C62.3366 85.7331 63.6888 85.9506 65.0943 85.9506C66.9701 85.9506 68.3578 85.6563 69.255 85.0652C70.1522 84.4767 70.6021 83.6451 70.6021 82.5679C70.6021 81.808 70.353 81.2118 69.8599 80.7793C69.3643 80.3469 68.7391 80.0194 67.9842 79.7968C67.2293 79.5742 66.2279 79.3592 64.9774 79.1469C63.3101 78.8347 61.9706 78.5123 60.9539 78.1848C59.9373 77.8573 59.0731 77.2995 58.3564 76.5139C57.6396 75.7284 57.2838 74.6384 57.2838 73.249C57.2838 71.5193 58.0005 70.1043 59.4315 69.004C60.8624 67.9038 62.8551 67.3511 65.4069 67.3511C66.7362 67.3511 68.063 67.5276 69.3923 67.8833C70.7216 68.239 71.812 68.7021 72.6736 69.2778L71.4637 71.5193C69.771 70.3397 67.7529 69.7512 65.4095 69.7512C63.6379 69.7512 62.3061 70.0633 61.4064 70.6953C60.5092 71.3248 60.0567 72.1487 60.0567 73.1722C60.0567 73.9577 60.3109 74.5872 60.8192 75.058C61.3276 75.5314 61.9579 75.8768 62.7128 76.0994C63.4677 76.322 64.5097 76.5523 65.8365 76.7877C67.4784 77.0999 68.7924 77.4172 69.7812 77.7319C70.7699 78.0466 71.6188 78.5839 72.3203 79.3439C73.0218 80.1038 73.3751 81.1529 73.3751 82.4886C73.3751 84.2976 72.6253 85.7331 71.1282 86.7949C69.6312 87.8568 67.5547 88.3865 64.8986 88.3865C63.2313 88.3865 61.6351 88.146 60.1126 87.6598Z" fill="white"/>
<path d="M11.8035 88.1921L20.7985 67.5098H17.9671L10.398 84.9143L2.82888 67.5098H0L8.99497 88.1921H11.8035Z" fill="white"/>
<path d="M42.4032 67.5098L33.4082 88.1921H36.2396L43.8087 70.7875L51.3778 88.1921H54.2067L45.2117 67.5098H42.4032Z" fill="white"/>
<path d="M80.9576 88.1769V67.2925H88.3971C90.1356 67.2925 91.6276 67.5714 92.8704 68.1292C94.1158 68.687 95.0741 69.4879 95.7451 70.5293C96.4161 71.5733 96.7516 72.8424 96.7516 74.3341C96.7516 75.8259 96.4161 77.0362 95.7451 78.0776C95.0741 79.1215 94.1133 79.9275 92.8704 80.4956C91.6276 81.0611 90.133 81.3451 88.3971 81.3451H81.7862L82.4674 80.6312V88.1795H80.9551L80.9576 88.1769ZM82.4699 80.7182L81.7887 80.0017H88.3996C90.6312 80.0017 92.3265 79.5053 93.4804 78.51C94.6369 77.5172 95.2138 76.1227 95.2138 74.3341C95.2138 72.5456 94.6369 71.128 93.4804 70.1429C92.3265 69.1578 90.6312 68.6665 88.3996 68.6665H81.7887L82.4699 67.9194V80.7182ZM95.3613 88.1769L89.9678 80.5979H91.6885L97.082 88.1769H95.3613Z" fill="white"/>
<path d="M103.807 86.8054H116.61V88.1795H102.295V67.2925H116.165V68.6665H103.807V86.808V86.8054ZM103.629 76.9006H114.863V78.2439H103.629V76.9006Z" fill="white"/>
<path d="M127.577 88.325C126.037 88.325 124.58 88.0615 123.205 87.5344C121.833 87.0073 120.77 86.3267 120.021 85.4925L120.702 84.359C121.416 85.0959 122.387 85.7151 123.622 86.2218C124.857 86.7284 126.166 86.9817 127.549 86.9817C128.932 86.9817 130.063 86.7975 130.945 86.429C131.821 86.0631 132.475 85.5693 132.899 84.9526C133.324 84.336 133.537 83.6502 133.537 82.8928C133.537 81.9973 133.298 81.2834 132.825 80.7461C132.35 80.2087 131.727 79.7814 130.957 79.4616C130.187 79.1443 129.346 78.8756 128.439 78.6556C127.529 78.4355 126.611 78.2027 125.683 77.9545C124.753 77.7063 123.904 77.3839 123.134 76.9847C122.364 76.5881 121.746 76.0456 121.284 75.3599C120.819 74.6742 120.587 73.7837 120.587 72.6886C120.587 71.6958 120.844 70.7798 121.357 69.943C121.871 69.1089 122.669 68.4308 123.757 67.914C124.845 67.3971 126.237 67.1387 127.935 67.1387C129.082 67.1387 130.213 67.3075 131.328 67.6453C132.444 67.9831 133.4 68.4411 134.19 69.0168L133.626 70.2399C132.757 69.6437 131.821 69.201 130.825 68.9144C129.829 68.6253 128.863 68.482 127.935 68.482C126.611 68.482 125.516 68.6714 124.646 69.0475C123.777 69.4262 123.134 69.9277 122.72 70.5546C122.303 71.1815 122.097 71.8826 122.097 72.6579C122.097 73.556 122.328 74.2699 122.793 74.8072C123.259 75.3445 123.876 75.7719 124.646 76.0917C125.416 76.409 126.265 76.6776 127.196 76.8951C128.123 77.1152 129.043 77.348 129.953 77.5988C130.861 77.847 131.702 78.1694 132.472 78.5686C133.242 78.9677 133.865 79.5051 134.34 80.1806C134.816 80.8561 135.049 81.7337 135.049 82.8058C135.049 83.7807 134.783 84.6916 134.251 85.536C133.718 86.383 132.902 87.0585 131.806 87.5651C130.708 88.0717 129.303 88.325 127.582 88.325" fill="white"/>
<path d="M148.972 88.3277C147.432 88.3277 146.003 88.0642 144.689 87.5371C143.375 87.01 142.229 86.2654 141.25 85.3007C140.274 84.3361 139.517 83.2103 138.983 81.9283C138.449 80.6464 138.183 79.2493 138.183 77.7371C138.183 76.2249 138.449 74.8278 138.983 73.5459C139.517 72.264 140.272 71.1407 141.25 70.1735C142.229 69.2088 143.375 68.4642 144.689 67.9371C146.003 67.41 147.432 67.1465 148.972 67.1465C150.512 67.1465 151.941 67.41 153.257 67.9371C154.569 68.4642 155.71 69.2063 156.678 70.1581C157.647 71.1125 158.402 72.2333 158.948 73.5152C159.489 74.7997 159.761 76.207 159.761 77.7371C159.761 79.2672 159.489 80.6771 158.948 81.959C158.402 83.2435 157.649 84.3617 156.678 85.3161C155.71 86.2705 154.569 87.0125 153.257 87.5396C151.943 88.0667 150.515 88.3303 148.972 88.3303M148.972 86.9281C150.296 86.9281 151.521 86.7004 152.647 86.2424C153.773 85.7869 154.752 85.1395 155.583 84.3028C156.414 83.4661 157.06 82.4938 157.525 81.3782C157.987 80.2651 158.221 79.0523 158.221 77.7397C158.221 76.427 157.987 75.1886 157.525 74.0858C157.06 72.9804 156.414 72.0132 155.583 71.1765C154.752 70.3398 153.773 69.695 152.647 69.237C151.521 68.779 150.299 68.5512 148.972 68.5512C147.645 68.5512 146.423 68.779 145.297 69.237C144.171 69.6924 143.19 70.3398 142.348 71.1765C141.507 72.0132 140.856 72.9804 140.394 74.0858C139.929 75.1912 139.695 76.4091 139.695 77.7397C139.695 79.0702 139.929 80.2651 140.394 81.3782C140.856 82.4938 141.51 83.4687 142.348 84.3028C143.19 85.1395 144.171 85.7843 145.297 86.2424C146.423 86.7004 147.648 86.9281 148.972 86.9281Z" fill="white"/>
<path d="M165.008 88.1769V67.2925H172.448C174.186 67.2925 175.676 67.5714 176.921 68.1292C178.167 68.687 179.125 69.4879 179.796 70.5293C180.467 71.5733 180.802 72.8424 180.802 74.3341C180.802 75.8259 180.467 77.0362 179.796 78.0776C179.125 79.1215 178.164 79.9275 176.921 80.4956C175.676 81.0611 174.184 81.3451 172.448 81.3451H165.837L166.518 80.6312V88.1795H165.006L165.008 88.1769ZM166.521 80.7182L165.84 80.0017H172.45C174.682 80.0017 176.375 79.5053 177.531 78.51C178.688 77.5172 179.265 76.1227 179.265 74.3341C179.265 72.5456 178.688 71.128 177.531 70.1429C176.375 69.1578 174.682 68.6665 172.45 68.6665H165.84L166.521 67.9194V80.7182ZM179.412 88.1769L174.019 80.5979H175.739L181.133 88.1769H179.415H179.412Z" fill="white"/>
<path d="M190.02 88.1769V68.664H182.553V67.2925H199V68.664H191.532V88.1769H190.02Z" fill="white"/>
<path d="M126.54 19.8251L126.517 19.756C124.913 15.2603 121.975 12.0747 118.02 10.542C116.536 9.96629 114.932 9.64133 113.275 9.55945C112.682 7.98839 111.874 6.5427 110.868 5.29147C108.196 1.97791 104.28 0.148407 99.5344 0H99.4988H99.4632C94.7204 0.145848 90.8012 1.97535 88.1324 5.28892C87.1234 6.54014 86.3177 7.98583 85.7255 9.55945C84.0709 9.64389 82.4645 9.96885 80.9802 10.542C77.0253 12.0721 74.0897 15.2578 72.4834 19.7535L72.4605 19.8226C71.1338 24.4078 71.6523 28.7244 73.955 32.3041C74.8217 33.6525 75.935 34.8654 77.2287 35.9145C76.8042 37.5163 76.6187 39.1385 76.7 40.7275C76.9262 44.9878 79.0256 48.7849 82.7771 51.7121L82.8356 51.7556C85.6391 53.6747 88.6001 54.6496 91.5561 54.6496C92.7379 54.6496 93.9198 54.4935 95.089 54.1788C96.6216 53.7668 98.1034 53.0836 99.4912 52.1753C100.879 53.0862 102.366 53.7719 103.903 54.1864C105.075 54.5012 106.257 54.6572 107.439 54.6572C110.392 54.6572 113.356 53.6824 116.159 51.7608L116.218 51.7198C119.969 48.7926 122.071 44.9954 122.295 40.7351C122.379 39.1436 122.191 37.5188 121.764 35.9145C123.06 34.8654 124.171 33.65 125.04 32.3015C127.348 28.7219 127.861 24.4053 126.537 19.82M99.4937 49.2583C97.6103 47.7205 95.9964 45.6684 94.8475 43.2811C92.8396 39.1052 92.133 34.914 92.6617 31.4137C94.4129 36.1141 99.2599 39.2511 105.446 40.0238C105.096 41.1138 104.661 42.2039 104.145 43.276C102.994 45.6684 101.377 47.7205 99.4912 49.2609M87.1691 19.472C86.7066 16.8723 86.8108 14.2701 87.4284 11.9186C89.8481 12.0517 92.3491 12.7553 94.6722 14.004C98.7032 16.1764 101.707 19.1189 103.334 22.2355C99.1734 19.5232 93.4521 19.8712 88.0257 22.8982C87.6673 21.8005 87.3801 20.6516 87.1691 19.4695M111.821 19.4695C111.007 24.0291 109.137 27.8391 106.669 30.3569C107.965 25.5311 105.871 20.1526 101.336 15.8847C102.267 15.2015 103.266 14.5695 104.32 14.0014C106.641 12.7502 109.139 12.0465 111.559 11.9161C112.177 14.265 112.283 16.8672 111.821 19.4695ZM99.4937 23.5353C102.267 23.5353 104.521 25.8075 104.521 28.5965C104.521 31.3855 102.269 33.6577 99.4988 33.6602H99.4937C96.7207 33.6602 94.4663 31.3881 94.4663 28.5965C94.4663 25.8049 96.7233 23.5353 99.4937 23.5353ZM94.7154 22.9289C90.8241 26.0684 89.3652 31.6823 90.5572 37.8463C89.4084 37.8489 88.2366 37.7696 87.0522 37.6058C84.4445 37.245 82.0121 36.3341 79.9788 35.0112C80.8506 32.7237 82.2917 30.5334 84.2005 28.6886C87.5174 25.4825 91.2511 23.5097 94.7154 22.9289ZM100.012 36.0143C104.996 35.7917 109.46 32.1199 112.103 26.4343C113.031 27.1098 113.93 27.8672 114.789 28.6988C116.696 30.5411 118.139 32.7288 119.009 35.0138C116.975 36.3367 114.543 37.245 111.938 37.6084C107.355 38.2429 103.159 37.616 100.012 36.0168M89.9548 6.78066C92.1737 4.0249 95.4728 2.49989 99.4962 2.36683C103.52 2.49989 106.819 4.02746 109.038 6.78066C109.719 7.6276 110.293 8.57946 110.753 9.61063C108.209 9.84603 105.619 10.6239 103.212 11.9212C101.888 12.6351 100.643 13.4411 99.4962 14.3238C98.3677 13.4539 97.1249 12.6453 95.7803 11.9237C93.3734 10.6264 90.7834 9.84859 88.2366 9.61319C88.6967 8.58201 89.2711 7.6276 89.9548 6.78066ZM75.9248 31.0196C74.0084 28.0438 73.5865 24.4155 74.7023 20.5211C76.0697 16.7086 78.5326 14.0219 81.8215 12.7502C82.8254 12.3613 83.8929 12.1105 85.0011 11.9851C84.4419 14.485 84.3784 17.1922 84.8588 19.8891C85.1231 21.3757 85.5018 22.8137 85.9771 24.1801C84.8105 24.9887 83.6693 25.9252 82.5738 26.9845C80.5964 28.8984 79.0587 31.1475 78.0496 33.5221C77.2261 32.7647 76.5068 31.928 75.9223 31.0196M94.479 51.8964C91.0757 52.8124 87.5174 52.096 84.1827 49.8212C81.0056 47.3316 79.2264 44.1459 79.0409 40.6046C78.985 39.5351 79.0714 38.4476 79.2925 37.3602C81.486 38.6728 84.0302 39.5735 86.7294 39.9471C88.0003 40.1236 89.2635 40.2132 90.5038 40.2132C90.7148 40.2132 90.9206 40.208 91.1316 40.2029C91.5357 41.5667 92.0669 42.9433 92.7278 44.3148C93.9173 46.7866 95.5567 48.9461 97.4782 50.6426C96.5149 51.1927 95.5084 51.6175 94.4764 51.8938M119.941 40.6098C119.756 44.1536 117.977 47.3393 114.8 49.8263C111.468 52.1011 107.907 52.8175 104.501 51.9015C103.466 51.6226 102.457 51.1953 101.489 50.6426C103.415 48.9461 105.06 46.7814 106.252 44.302C106.9 42.9536 107.431 41.577 107.843 40.2004C108.054 40.2055 108.268 40.208 108.481 40.208C109.704 40.208 110.964 40.121 112.25 39.9419C114.947 39.5684 117.491 38.6677 119.685 37.3576C119.903 38.4451 119.995 39.5377 119.939 40.6072M123.06 31.0119C122.475 31.9203 121.756 32.7596 120.93 33.5169C119.921 31.145 118.383 28.8959 116.409 26.987C115.328 25.9431 114.187 25.0066 113.005 24.1827C113.475 22.8342 113.857 21.3962 114.124 19.884C114.604 17.1896 114.54 14.4799 113.981 11.98C115.089 12.1028 116.159 12.3587 117.163 12.7451C120.452 14.0193 122.913 16.7035 124.283 20.516C125.401 24.4104 124.979 28.0412 123.06 31.017" fill="white"/>
<path d="M19.3551 103.933L15.1816 94.5068H15.9314L19.9168 103.516H19.5025L23.5031 94.5068H24.2097L20.0362 103.933H19.3551Z" fill="white"/>
<path d="M23.8762 103.933L28.1818 94.5068H28.8629L33.1711 103.933H32.434L28.3673 94.9367H28.6596L24.6056 103.933H23.8711H23.8762ZM25.4546 101.28L25.6833 100.702H31.2877L31.5139 101.28H25.4546Z" fill="white"/>
<path d="M34.8721 103.933V94.5068H35.449L42.1235 103.086H41.8159V94.5068H42.4996V103.933H41.9379L35.2457 95.3538H35.5558V103.933H34.8721Z" fill="white"/>
<path d="M49.2012 103.933V94.5068H52.5587C53.3441 94.5068 54.0176 94.6322 54.5768 94.883C55.1385 95.1363 55.5706 95.4971 55.8756 95.9679C56.1781 96.4387 56.3306 97.0118 56.3306 97.6848C56.3306 98.3577 56.1781 98.9053 55.8756 99.3812C55.5706 99.8572 55.1385 100.221 54.5768 100.471C54.0176 100.722 53.3415 100.847 52.5587 100.847H49.5748L49.8823 100.525V103.933H49.2012ZM49.8823 100.566L49.5748 100.228H52.5587C53.5652 100.228 54.3303 100.006 54.8538 99.5629C55.3749 99.1177 55.6341 98.4908 55.6341 97.6848C55.6341 96.8788 55.3749 96.2365 54.8538 95.7913C54.3303 95.3461 53.5652 95.1235 52.5587 95.1235H49.5748L49.8823 94.7857V100.563V100.566Z" fill="white"/>
<path d="M59.315 103.933H58.6338V94.507H59.315V103.933ZM65.6539 99.4479H59.2311V98.8415H65.6539V99.4479ZM65.5725 94.5044H66.2537V103.931H65.5725V94.5044Z" fill="white"/>
<path d="M73.4945 104C72.798 104 72.155 103.882 71.5602 103.644C70.968 103.406 70.4495 103.069 70.0073 102.634C69.565 102.199 69.2244 101.689 68.983 101.111C68.7441 100.533 68.6221 99.9035 68.6221 99.2203C68.6221 98.5371 68.7415 97.9076 68.983 97.3268C69.2244 96.746 69.565 96.2393 70.0073 95.8044C70.4495 95.3694 70.9655 95.0316 71.5602 94.7937C72.1524 94.5557 72.798 94.438 73.4945 94.438C74.1909 94.438 74.8339 94.5583 75.4287 94.7937C76.0209 95.0316 76.5368 95.3668 76.974 95.7967C77.4112 96.2291 77.7517 96.7332 77.9983 97.3115C78.2423 97.8923 78.3668 98.5269 78.3668 99.2177C78.3668 99.9086 78.2448 100.543 77.9983 101.124C77.7517 101.702 77.4112 102.206 76.974 102.639C76.5368 103.071 76.0234 103.404 75.4287 103.642C74.8365 103.88 74.1909 103.997 73.4945 103.997M73.4945 103.365C74.0917 103.365 74.6458 103.263 75.1542 103.056C75.6625 102.851 76.1047 102.557 76.4784 102.181C76.8545 101.802 77.1443 101.364 77.3552 100.86C77.5637 100.359 77.6679 99.8113 77.6679 99.2177C77.6679 98.6241 77.5637 98.0663 77.3552 97.5673C77.1443 97.0684 76.852 96.6308 76.4784 96.2547C76.1047 95.876 75.6625 95.5869 75.1542 95.3796C74.6458 95.1749 74.0917 95.07 73.4945 95.07C72.8972 95.07 72.3431 95.1724 71.8347 95.3796C71.3264 95.5869 70.8842 95.8786 70.5029 96.2547C70.1242 96.6334 69.8294 97.0684 69.6184 97.5673C69.41 98.0663 69.3032 98.6139 69.3032 99.2177C69.3032 99.8216 69.4074 100.359 69.6184 100.86C69.8294 101.364 70.1217 101.805 70.5029 102.181C70.8816 102.557 71.3264 102.849 71.8347 103.056C72.3431 103.263 72.8972 103.365 73.4945 103.365Z" fill="white"/>
<path d="M80.7314 103.933V94.5068H81.3084L87.9828 103.086H87.6753V94.5068H88.3565V103.933H87.7947L81.1051 95.3538H81.4152V103.933H80.7314Z" fill="white"/>
<path d="M95.6199 104C94.9158 104 94.2626 103.882 93.6679 103.644C93.068 103.406 92.5495 103.074 92.1073 102.641C91.6676 102.209 91.327 101.705 91.0855 101.126C90.8441 100.546 90.7246 99.911 90.7246 99.2202C90.7246 98.5293 90.8441 97.8947 91.0855 97.3139C91.327 96.7356 91.6701 96.2315 92.1149 95.7991C92.5622 95.3693 93.0807 95.0341 93.6729 94.7961C94.2651 94.5581 94.9184 94.4404 95.6326 94.4404C96.3468 94.4404 96.939 94.5479 97.5185 94.7654C98.098 94.9803 98.5911 95.3027 99.0028 95.7352L98.5758 96.1932C98.1641 95.7914 97.7167 95.5023 97.2287 95.3309C96.7433 95.162 96.2146 95.075 95.6453 95.075C95.0378 95.075 94.4761 95.1773 93.9601 95.3846C93.4416 95.5893 92.9918 95.8836 92.6105 96.2597C92.2267 96.6384 91.9294 97.0785 91.7209 97.58C91.51 98.0841 91.4058 98.6291 91.4058 99.2227C91.4058 99.8163 91.51 100.364 91.7209 100.865C91.9294 101.37 92.2267 101.81 92.6105 102.186C92.9918 102.564 93.4442 102.854 93.9601 103.061C94.4786 103.266 95.0404 103.37 95.6453 103.37C96.1994 103.37 96.7229 103.286 97.2186 103.115C97.7142 102.943 98.1666 102.662 98.5758 102.265L98.9622 102.79C98.5453 103.194 98.0421 103.496 97.4575 103.698C96.8729 103.9 96.2604 104 95.6173 104M98.3064 102.721V99.2611H98.9622V102.79L98.3064 102.723V102.721Z" fill="white"/>
<path d="M105.4 103.933V94.5068H108.76C109.546 94.5068 110.217 94.6322 110.779 94.883C111.34 95.1363 111.772 95.4971 112.077 95.9679C112.38 96.4387 112.532 97.0118 112.532 97.6848C112.532 98.3577 112.38 98.9053 112.077 99.3812C111.772 99.8572 111.34 100.221 110.779 100.471C110.217 100.722 109.543 100.847 108.76 100.847H105.777L106.084 100.525V103.933H105.4ZM106.084 100.566L105.777 100.228H108.76C109.767 100.228 110.532 100.006 111.056 99.5629C111.577 99.1177 111.836 98.4908 111.836 97.6848C111.836 96.8788 111.574 96.2365 111.056 95.7913C110.532 95.3461 109.767 95.1235 108.76 95.1235H105.777L106.084 94.7857V100.563V100.566Z" fill="white"/>
<path d="M115.514 103.314H121.291V103.933H114.83V94.5068H121.09V95.126H115.514V103.314ZM115.432 98.8439H120.503V99.4503H115.432V98.8439Z" fill="white"/>
<path d="M123.782 103.933V94.5068H124.357L131.031 103.086H130.726V94.5068H131.407V103.933H130.846L124.156 95.3538H124.463V103.933H123.782Z" fill="white"/>
<path d="M135.352 94.5068H134.671V103.933H135.352V94.5068Z" fill="white"/>
<path d="M138.618 103.933V94.5068H139.193L145.87 103.086H145.562V94.5068H146.243V103.933H145.681L138.992 95.3538H139.299V103.933H138.618Z" fill="white"/>
<path d="M151.966 104C151.269 104 150.613 103.88 149.993 103.644C149.373 103.406 148.895 103.099 148.555 102.723L148.862 102.211C149.182 102.541 149.622 102.823 150.179 103.053C150.735 103.281 151.325 103.396 151.95 103.396C152.576 103.396 153.086 103.311 153.48 103.148C153.877 102.981 154.172 102.759 154.365 102.48C154.558 102.204 154.652 101.891 154.652 101.551C154.652 101.149 154.545 100.824 154.332 100.581C154.116 100.338 153.836 100.146 153.488 100.003C153.142 99.8597 152.761 99.7369 152.352 99.6397C151.94 99.5424 151.528 99.435 151.109 99.3224C150.69 99.2098 150.306 99.064 149.958 98.8848C149.612 98.7057 149.332 98.4601 149.124 98.153C148.913 97.8434 148.809 97.4417 148.809 96.9479C148.809 96.4975 148.923 96.0856 149.155 95.7094C149.388 95.3307 149.747 95.0263 150.237 94.7934C150.728 94.5606 151.358 94.4429 152.123 94.4429C152.642 94.4429 153.153 94.5196 153.656 94.6732C154.159 94.8267 154.589 95.0339 154.947 95.2924L154.693 95.8451C154.299 95.5764 153.877 95.3768 153.427 95.2463C152.977 95.1158 152.543 95.0519 152.123 95.0519C151.528 95.0519 151.033 95.1363 150.639 95.3077C150.245 95.4766 149.955 95.7043 149.77 95.9884C149.584 96.2698 149.487 96.5871 149.487 96.9376C149.487 97.3419 149.592 97.6669 149.803 97.9074C150.014 98.1479 150.291 98.3424 150.639 98.4857C150.987 98.629 151.371 98.7518 151.79 98.849C152.21 98.9488 152.624 99.0537 153.036 99.1663C153.445 99.2789 153.824 99.4247 154.172 99.6038C154.523 99.783 154.802 100.026 155.016 100.331C155.227 100.638 155.333 101.032 155.333 101.518C155.333 101.955 155.214 102.367 154.972 102.749C154.731 103.13 154.362 103.434 153.867 103.665C153.371 103.892 152.738 104.007 151.961 104.007" fill="white"/>
<path d="M161.32 104C160.161 104 159.248 103.657 158.577 102.976C157.906 102.296 157.573 101.28 157.573 99.9315V94.5044H158.257V99.9033C158.257 101.08 158.524 101.95 159.06 102.516C159.596 103.081 160.354 103.365 161.335 103.365C162.316 103.365 163.061 103.081 163.594 102.516C164.131 101.95 164.398 101.08 164.398 99.9033V94.5044H165.081V99.9315C165.081 101.28 164.748 102.293 164.077 102.976C163.409 103.66 162.489 104 161.322 104" fill="white"/>
<path d="M168.262 103.933V94.5068H168.943V103.314H174.336V103.933H168.262Z" fill="white"/>
<path d="M174.524 103.933L178.83 94.5068H179.513L183.821 103.933H183.084L179.018 94.9367H179.31L175.256 103.933H174.521H174.524ZM176.102 101.28L176.329 100.702H181.936L182.164 101.28H176.102Z" fill="white"/>
</g>
<defs>
<clipPath id="clip0_1107_24">
<rect width="199" height="104" fill="white"/>
</clipPath>
</defs>
</svg>
