<svg width="200" height="104" viewBox="0 0 200 104" fill="none" xmlns="http://www.w3.org/2000/svg">
<g clip-path="url(#clip0_1894_3726)">
<path d="M28.6279 67.5156H25.8477V88.2036H28.6279V67.5156Z" fill="#C77B2F"/>
<path d="M60.4135 87.6584C58.8836 87.1722 57.6774 86.568 56.8242 85.8313L58.0746 83.6357C58.9425 84.3136 60.031 84.8735 61.3255 85.3008C62.6347 85.7281 64.0028 85.9492 65.4003 85.9492C67.2832 85.9492 68.6806 85.6545 69.578 85.0651C70.4753 84.4756 70.9313 83.6505 70.9313 82.5601C70.9313 81.8086 70.6812 81.2045 70.1811 80.7771C69.6809 80.3498 69.0484 80.0109 68.2982 79.7899C67.548 79.5689 66.533 79.3478 65.2826 79.1416C63.6056 78.8321 62.267 78.508 61.2373 78.1838C60.2223 77.8596 59.3397 77.2997 58.6336 76.5187C57.9128 75.7378 57.5597 74.6474 57.5597 73.2475C57.5597 71.5235 58.2805 70.109 59.7221 69.0038C61.1637 67.8987 63.1643 67.3535 65.7239 67.3535C67.0625 67.3535 68.3864 67.5303 69.7251 67.884C71.0637 68.2376 72.1523 68.7091 73.0202 69.2838L71.7992 71.5235C70.0928 70.3447 68.0628 69.7553 65.7092 69.7553C63.9292 69.7553 62.5906 70.0648 61.6786 70.6984C60.7813 71.332 60.3252 72.1571 60.3252 73.1739C60.3252 73.9548 60.5753 74.5884 61.0902 75.0599C61.605 75.5315 62.2376 75.8851 63.0025 76.1061C63.7527 76.3272 64.8119 76.5629 66.1358 76.7987C67.7833 77.1081 69.1072 77.4323 70.0928 77.7417C71.0931 78.0512 71.9463 78.5964 72.6524 79.3478C73.3585 80.0993 73.7115 81.1603 73.7115 82.5012C73.7115 84.3136 72.9613 85.7429 71.4462 86.8038C69.9457 87.8647 67.8569 88.3952 65.1796 88.3952C63.5027 88.3952 61.8992 88.1447 60.3694 87.6732" fill="#C77B2F"/>
<path d="M11.8564 88.1889L20.9032 67.5156H18.0494L10.4442 84.9177L2.83907 67.5156H0L9.03207 88.1889H11.8564Z" fill="#C77B2F"/>
<path d="M42.6171 67.5156L33.5703 88.1889H36.4241L44.0293 70.7868L51.6344 88.1889H54.4735L45.4415 67.5156H42.6171Z" fill="#C77B2F"/>
<path d="M81.3633 88.1745V67.2949H88.8361C90.5866 67.2949 92.087 67.5749 93.3374 68.1348C94.5878 68.6948 95.5586 69.4904 96.2206 70.5366C96.8973 71.5828 97.2356 72.85 97.2356 74.3383C97.2356 75.8265 96.8973 77.0348 96.2206 78.081C95.5439 79.1272 94.5878 79.9229 93.3374 80.4975C92.087 81.0722 90.5866 81.3522 88.8361 81.3522H82.187L82.8784 80.6301V88.1745H81.3633ZM82.8784 80.7186L82.187 79.9965H88.8361C91.0867 79.9965 92.7784 79.4955 93.9405 78.5083C95.1026 77.521 95.6763 76.1212 95.6763 74.3383C95.6763 72.5553 95.1026 71.126 93.9405 70.1388C92.7784 69.1515 91.072 68.6653 88.8361 68.6653H82.187L82.8784 67.9138V80.7186ZM95.8381 88.1745L90.4101 80.6007H92.1312L97.5445 88.1745H95.8234H95.8381Z" fill="#C77B2F"/>
<path d="M104.324 86.8041H117.195V88.1745H102.809V67.2949H116.754V68.6653H104.338V86.8041H104.324ZM104.147 76.9022H115.43V78.2431H104.147V76.9022Z" fill="#C77B2F"/>
<path d="M128.215 88.3219C126.67 88.3219 125.199 88.0567 123.816 87.5262C122.433 86.9958 121.374 86.3179 120.609 85.478L121.301 84.3434C122.022 85.0802 122.992 85.6991 124.228 86.2148C125.464 86.7158 126.788 86.981 128.17 86.981C129.553 86.981 130.701 86.8042 131.583 86.4211C132.466 86.0527 133.128 85.5665 133.554 84.9476C133.981 84.3287 134.187 83.6509 134.187 82.8847C134.187 81.9858 133.952 81.2786 133.466 80.7334C132.995 80.2029 132.363 79.7756 131.598 79.4514C130.818 79.142 129.98 78.862 129.068 78.641C128.156 78.4199 127.229 78.1842 126.302 77.9337C125.375 77.6832 124.522 77.359 123.743 76.9612C122.963 76.5633 122.345 76.0181 121.874 75.3403C121.404 74.6625 121.168 73.7637 121.168 72.6733C121.168 71.686 121.418 70.7577 121.948 69.9326C122.463 69.0927 123.272 68.4296 124.36 67.8991C125.449 67.3834 126.847 67.1182 128.568 67.1182C129.715 67.1182 130.862 67.2802 131.98 67.6192C133.098 67.9581 134.055 68.4148 134.849 68.9895L134.29 70.2125C133.422 69.6231 132.481 69.1811 131.48 68.8864C130.48 68.5917 129.509 68.4591 128.582 68.4591C127.258 68.4591 126.155 68.6506 125.273 69.0337C124.39 69.4168 123.757 69.9178 123.331 70.5367C122.919 71.1556 122.713 71.8629 122.713 72.6438C122.713 73.5426 122.948 74.2499 123.419 74.7951C123.89 75.3256 124.508 75.7529 125.287 76.0771C126.067 76.4012 126.92 76.6665 127.847 76.8875C128.774 77.1085 129.7 77.3443 130.612 77.5948C131.524 77.8453 132.363 78.1695 133.142 78.5673C133.922 78.9651 134.54 79.4956 135.025 80.1734C135.496 80.8512 135.746 81.7206 135.746 82.7963C135.746 83.7688 135.481 84.6824 134.937 85.5222C134.393 86.3621 133.584 87.04 132.481 87.5557C131.377 88.0567 129.965 88.3219 128.244 88.3219" fill="#C77B2F"/>
<path d="M149.719 88.3219C148.175 88.3219 146.733 88.0567 145.409 87.5262C144.085 86.9958 142.938 86.259 141.952 85.2865C140.967 84.3287 140.217 83.1941 139.672 81.9122C139.143 80.6302 138.863 79.2304 138.863 77.7274C138.863 76.2244 139.128 74.8099 139.672 73.5279C140.202 72.246 140.967 71.1261 141.952 70.1536C142.938 69.1811 144.085 68.4443 145.409 67.9139C146.733 67.3834 148.16 67.1182 149.719 67.1182C151.279 67.1182 152.706 67.3834 154.03 67.9139C155.353 68.4443 156.501 69.1811 157.472 70.1388C158.443 71.0966 159.207 72.2165 159.752 73.4984C160.296 74.7804 160.576 76.195 160.576 77.7127C160.576 79.2304 160.311 80.6449 159.752 81.9416C159.207 83.2236 158.443 84.3434 157.472 85.3012C156.501 86.259 155.353 86.9958 154.03 87.5262C152.706 88.0567 151.279 88.3219 149.719 88.3219ZM149.719 86.9221C151.043 86.9221 152.279 86.701 153.412 86.2295C154.544 85.7727 155.53 85.1244 156.354 84.2845C157.192 83.4446 157.839 82.4721 158.31 81.367C158.781 80.2471 159.016 79.0388 159.016 77.7274C159.016 76.416 158.781 75.1782 158.31 74.0731C157.839 72.968 157.192 71.9955 156.354 71.1703C155.515 70.3304 154.544 69.6821 153.412 69.2253C152.279 68.7685 151.043 68.5327 149.719 68.5327C148.395 68.5327 147.16 68.7685 146.027 69.2253C144.894 69.6821 143.909 70.3304 143.07 71.1703C142.232 72.0102 141.57 72.9827 141.099 74.0731C140.629 75.1782 140.393 76.4012 140.393 77.7274C140.393 79.0536 140.629 80.2471 141.099 81.367C141.57 82.4868 142.217 83.4593 143.07 84.2845C143.909 85.1244 144.909 85.7727 146.027 86.2295C147.16 86.6863 148.395 86.9221 149.719 86.9221Z" fill="#C77B2F"/>
<path d="M165.828 88.1745V67.2949H173.301C175.051 67.2949 176.552 67.5749 177.802 68.1348C179.053 68.6948 180.023 69.4904 180.685 70.5366C181.362 71.5828 181.7 72.85 181.7 74.3383C181.7 75.8265 181.362 77.0348 180.685 78.081C180.009 79.1272 179.053 79.9229 177.802 80.4975C176.552 81.0722 175.051 81.3522 173.301 81.3522H166.652L167.343 80.6301V88.1745H165.828ZM167.343 80.7186L166.652 79.9965H173.301C175.552 79.9965 177.243 79.4955 178.405 78.5083C179.567 77.521 180.141 76.1212 180.141 74.3383C180.141 72.5553 179.567 71.126 178.405 70.1388C177.243 69.1515 175.537 68.6653 173.301 68.6653H166.652L167.343 67.9138V80.7186ZM180.303 88.1745L174.875 80.6007H176.596L182.009 88.1745H180.288H180.303Z" fill="#C77B2F"/>
<path d="M190.967 88.1745V68.6653H183.465V67.2949H199.999V68.6653H192.497V88.1745H190.967Z" fill="#C77B2F"/>
<mask id="mask0_1894_3726" style="mask-type:luminance" maskUnits="userSpaceOnUse" x="72" y="0" width="56" height="55">
<path d="M84.6148 49.8192C81.4227 47.329 79.6428 44.1462 79.4515 40.5951C79.3927 39.5341 79.481 38.4438 79.7016 37.3534C81.9082 38.6648 84.4677 39.5636 87.1744 39.9467C88.4542 40.1236 89.7193 40.212 90.9696 40.212C91.1756 40.212 91.3962 40.212 91.6022 40.212C92.0141 41.5676 92.5436 42.9527 93.2056 44.323C94.3971 46.7985 96.0447 48.9498 97.9864 50.6444C97.0155 51.1896 96.0005 51.6169 94.9708 51.8969C93.9999 52.1474 93.0291 52.28 92.0435 52.28C89.5427 52.28 87.0273 51.4548 84.6148 49.8192ZM112.829 39.9467C115.536 39.5784 118.095 38.6795 120.302 37.3534C120.522 38.4438 120.611 39.5341 120.552 40.6098C120.361 44.1462 118.581 47.3437 115.389 49.8339C112.035 52.1031 108.46 52.8252 105.033 51.9116C103.988 51.6316 102.973 51.2043 102.002 50.6591C103.944 48.9646 105.592 46.7985 106.798 44.323C107.445 42.9674 107.989 41.5971 108.401 40.2267C108.607 40.2267 108.828 40.2267 109.048 40.2267C110.284 40.2267 111.549 40.1383 112.844 39.9615M95.3386 43.2916C93.3233 39.1068 92.6172 34.9221 93.1467 31.4151C94.912 36.1156 99.7811 39.2542 106.003 40.0204C105.65 41.1108 105.209 42.2012 104.694 43.2769C103.532 45.6639 101.914 47.7268 100.016 49.2593C98.1188 47.7268 96.5007 45.6639 95.3533 43.2769M100.546 36.0125C105.547 35.7914 110.034 32.1224 112.697 26.4347C113.623 27.1125 114.535 27.864 115.389 28.7039C117.301 30.5458 118.757 32.7266 119.625 35.0252C117.58 36.3514 115.139 37.2502 112.52 37.6186C111.329 37.7807 110.152 37.8544 109.019 37.8544C105.783 37.8544 102.87 37.206 100.531 36.0125M94.9561 28.6007C94.9561 25.8011 97.2215 23.5319 100.016 23.5319C102.811 23.5319 105.077 25.8011 105.077 28.6007C105.077 31.4004 102.811 33.6549 100.031 33.6549C97.2509 33.6549 94.9708 31.3857 94.9708 28.586M87.5275 37.5891C84.909 37.2355 82.4671 36.3219 80.4224 34.9958C81.305 32.7118 82.7466 30.5163 84.659 28.6744C87.9982 25.4622 91.7493 23.4877 95.2209 22.913C91.308 26.0516 89.8517 31.6656 91.0432 37.8249H90.9843C89.8517 37.8249 88.6896 37.7512 87.5127 37.5891M76.333 31.0026C74.4059 28.0261 73.9794 24.4012 75.112 20.5112C76.4801 16.6948 78.9661 14.013 82.2612 12.7458C83.2615 12.3627 84.35 12.0975 85.4533 11.9796C84.8943 14.4846 84.8355 17.1811 85.3062 19.8776C85.571 21.3658 85.9535 22.7951 86.4242 24.1655C85.2474 24.9759 84.1 25.9042 83.0114 26.9651C81.0255 28.8807 79.481 31.1204 78.466 33.5075C77.6422 32.756 76.9214 31.9161 76.333 31.0026ZM117.021 26.9799C115.933 25.9337 114.785 24.9906 113.594 24.1802C114.065 22.8246 114.447 21.3953 114.727 19.8776C115.212 17.1811 115.153 14.4698 114.58 11.9796C115.697 12.0975 116.771 12.3627 117.772 12.7458C121.081 14.013 123.553 16.7095 124.921 20.5112C126.039 24.4012 125.612 28.0408 123.685 31.0026C123.097 31.9161 122.376 32.756 121.552 33.5075C120.537 31.1352 118.993 28.8807 117.007 26.9799M87.6157 19.4503C87.145 16.8569 87.2627 14.2488 87.8805 11.9059C90.3077 12.0385 92.8231 12.7458 95.1621 13.9836C99.2074 16.1496 102.238 19.0966 103.87 22.2205C99.6928 19.5092 93.9411 19.8629 88.4836 22.8835C88.1306 21.7784 87.8364 20.6438 87.6304 19.4503M101.87 15.8697C102.811 15.1918 103.812 14.5582 104.871 13.9836C107.21 12.7311 109.71 12.0238 112.152 11.8912C112.77 14.2341 112.873 16.8422 112.417 19.4355C111.608 24.0034 109.725 27.805 107.239 30.3247C108.534 25.5064 106.445 20.1281 101.885 15.8549M96.2947 11.8912C93.8823 10.5945 91.2786 9.81355 88.719 9.57778C89.1897 8.54633 89.7634 7.58855 90.4401 6.74865C92.6613 3.9932 95.9858 2.46075 100.031 2.32814C104.076 2.46075 107.386 3.9932 109.622 6.74865C110.299 7.58855 110.887 8.54633 111.343 9.57778C108.784 9.81355 106.18 10.5945 103.768 11.8912C102.444 12.5985 101.179 13.4089 100.031 14.293C98.8984 13.4236 97.6481 12.6132 96.2947 11.8912ZM99.9576 0C95.1915 0.147351 91.2491 1.9745 88.5719 5.28988C87.5569 6.54236 86.7478 7.9864 86.1594 9.56305C84.4971 9.65146 82.879 9.97563 81.3933 10.5503C77.4215 12.0827 74.4648 15.2655 72.8467 19.7597L72.8172 19.8334C71.4786 24.416 72.0082 28.7334 74.3177 32.314C75.1856 33.6549 76.3036 34.8779 77.6128 35.9241C77.1862 37.5302 76.9949 39.151 77.0832 40.7424C77.3039 45.0009 79.4221 48.8025 83.1879 51.72L83.2468 51.7642C86.0564 53.6798 89.0426 54.6523 92.0141 54.6523C93.2056 54.6523 94.3971 54.4902 95.5739 54.1808C97.1185 53.7682 98.6042 53.0904 100.002 52.1768C101.399 53.0904 102.885 53.7682 104.429 54.1808C105.606 54.4902 106.798 54.6523 107.975 54.6523C110.946 54.6523 113.918 53.6798 116.742 51.7642L116.801 51.72C120.567 48.7878 122.685 45.0009 122.906 40.7424C122.994 39.151 122.803 37.5302 122.376 35.9241C123.685 34.8779 124.803 33.6549 125.671 32.314C127.995 28.7334 128.51 24.416 127.171 19.8334L127.142 19.7597C125.524 15.2655 122.582 12.0827 118.595 10.5503C117.095 9.97563 115.492 9.65146 113.829 9.56305C113.241 7.9864 112.417 6.54236 111.402 5.28988C108.74 1.9745 104.797 0.147351 100.031 0H100.002H99.9723H99.9576Z" fill="white"/>
</mask>
<g mask="url(#mask0_1894_3726)">
<path d="M128.509 0H71.4922V54.667H128.509V0Z" fill="url(#paint0_radial_1894_3726)"/>
</g>
<path d="M19.4463 103.926L15.2539 94.5107H16.0041L20.02 103.514H19.5934L23.624 94.5107H24.3301L20.1377 103.926H19.4463Z" fill="#C77B2F"/>
<path d="M23.9922 103.941L28.317 94.5107H29.0084L33.3332 103.941H32.5977L28.5082 94.9381H28.8024L24.7277 103.941H23.9922ZM25.5809 101.289L25.8015 100.714H31.4356L31.6562 101.289H25.5662H25.5809Z" fill="#C77B2F"/>
<path d="M35.0547 103.926V94.5107H35.6284L42.3362 103.087H42.0273V94.5107H42.7187V103.926H42.145L35.4224 95.3506H35.7314V103.926H35.0547Z" fill="#C77B2F"/>
<path d="M49.4405 103.927V94.4961H52.8091C53.6035 94.4961 54.2802 94.614 54.8391 94.8792C55.3981 95.1297 55.8394 95.4981 56.1483 95.9696C56.4573 96.4411 56.6044 97.0158 56.6044 97.6789C56.6044 98.3419 56.4573 98.9019 56.1483 99.3734C55.8394 99.8449 55.4128 100.213 54.8391 100.464C54.2802 100.714 53.6035 100.847 52.8091 100.847H49.8082L50.1172 100.523V103.927H49.4258H49.4405ZM50.1319 100.552L49.823 100.213H52.8238C53.8388 100.213 54.6038 99.9923 55.1333 99.5502C55.6629 99.1082 55.9277 98.4746 55.9277 97.6789C55.9277 96.8832 55.6629 96.2348 55.1333 95.7928C54.6038 95.3507 53.8388 95.1297 52.8238 95.1297H49.823L50.1319 94.7908V100.567V100.552Z" fill="#C77B2F"/>
<path d="M59.6054 103.927H58.9141V94.4961H59.6054V103.927ZM65.975 99.4471H59.5172V98.8429H65.975V99.4471ZM65.9014 94.5108H66.5928V103.941H65.9014V94.5108Z" fill="#C77B2F"/>
<path d="M73.8594 104C73.1533 104 72.5061 103.882 71.9177 103.647C71.3293 103.411 70.7997 103.072 70.3584 102.645C69.9171 102.217 69.5641 101.702 69.3287 101.127C69.0786 100.552 68.9609 99.9187 68.9609 99.2409C68.9609 98.563 69.0786 97.9294 69.3287 97.3548C69.5641 96.7801 69.9171 96.2644 70.3584 95.8371C70.7997 95.4098 71.3146 95.0708 71.9177 94.8351C72.5061 94.5993 73.1681 94.4814 73.8594 94.4814C74.5508 94.4814 75.1981 94.5993 75.8012 94.8351C76.3896 95.0708 76.9192 95.4098 77.3458 95.8371C77.7871 96.2644 78.1254 96.7801 78.3755 97.3548C78.6255 97.9294 78.7432 98.5631 78.7432 99.2556C78.7432 99.9481 78.6255 100.582 78.3755 101.156C78.1254 101.731 77.7871 102.247 77.3458 102.674C76.9045 103.101 76.3896 103.44 75.8012 103.676C75.1981 103.912 74.5508 104.03 73.8594 104.03M73.8594 103.396C74.4626 103.396 75.0215 103.293 75.5217 103.087C76.0365 102.88 76.4779 102.586 76.8456 102.217C77.2281 101.834 77.5223 101.407 77.7282 100.891C77.9342 100.375 78.0371 99.845 78.0371 99.2556C78.0371 98.6662 77.9342 98.1063 77.7282 97.6053C77.5223 97.1043 77.2281 96.677 76.8456 96.2939C76.4631 95.9107 76.0218 95.6308 75.5217 95.4245C75.0068 95.2182 74.4478 95.1151 73.8594 95.1151C73.271 95.1151 72.6973 95.2182 72.1972 95.4245C71.6823 95.6308 71.241 95.9255 70.8586 96.2939C70.4761 96.677 70.1819 97.1043 69.9759 97.6053C69.77 98.1063 69.667 98.6515 69.667 99.2556C69.667 99.8597 69.77 100.39 69.9759 100.891C70.1819 101.392 70.4761 101.834 70.8586 102.217C71.241 102.6 71.6823 102.88 72.1972 103.087C72.712 103.293 73.271 103.396 73.8594 103.396Z" fill="#C77B2F"/>
<path d="M81.1406 103.926V94.5107H81.7143L88.4222 103.087H88.1133V94.5107H88.8046V103.926H88.2309L81.5084 95.3506H81.8173V103.926H81.1406Z" fill="#C77B2F"/>
<path d="M96.1037 104C95.3976 104 94.7357 103.883 94.1472 103.647C93.5441 103.411 93.0293 103.072 92.5733 102.645C92.1319 102.218 91.7789 101.717 91.5435 101.127C91.3082 100.552 91.1758 99.9188 91.1758 99.2263C91.1758 98.5338 91.2935 97.9002 91.5435 97.3255C91.7789 96.7508 92.1319 96.2351 92.5733 95.8078C93.0293 95.3805 93.5441 95.0415 94.1472 94.8058C94.7357 94.57 95.3976 94.4521 96.1184 94.4521C96.8392 94.4521 97.4276 94.5553 98.016 94.7763C98.6044 94.9973 99.0899 95.3215 99.5018 95.7488L99.0752 96.2056C98.6633 95.8078 98.2073 95.5131 97.7218 95.351C97.2364 95.1742 96.7068 95.1005 96.1331 95.1005C95.53 95.1005 94.9563 95.2036 94.4414 95.4099C93.9266 95.6162 93.4706 95.9109 93.0881 96.2793C92.7056 96.6624 92.4114 97.0897 92.1908 97.6054C91.9848 98.1064 91.8819 98.6516 91.8819 99.2558C91.8819 99.8599 91.9848 100.39 92.1908 100.891C92.3967 101.392 92.7056 101.834 93.0881 102.203C93.4706 102.586 93.9266 102.866 94.4414 103.087C94.9563 103.293 95.53 103.396 96.1331 103.396C96.6921 103.396 97.2217 103.308 97.7071 103.146C98.2073 102.969 98.6633 102.689 99.0752 102.291L99.4723 102.822C99.0457 103.22 98.5456 103.529 97.9572 103.735C97.3688 103.942 96.751 104.03 96.1037 104.03M98.8104 102.748V99.2852H99.4723V102.822L98.8104 102.748Z" fill="#C77B2F"/>
<path d="M105.929 103.927V94.4961H109.297C110.092 94.4961 110.768 94.614 111.327 94.8792C111.886 95.1297 112.328 95.4981 112.637 95.9696C112.946 96.4411 113.093 97.0158 113.093 97.6789C113.093 98.3419 112.946 98.9019 112.637 99.3734C112.328 99.8449 111.901 100.213 111.327 100.464C110.768 100.714 110.092 100.847 109.297 100.847H106.297L106.605 100.523V103.927H105.914H105.929ZM106.62 100.552L106.311 100.213H109.312C110.327 100.213 111.092 99.9923 111.622 99.5502C112.151 99.1082 112.416 98.4746 112.416 97.6789C112.416 96.8832 112.151 96.2348 111.622 95.7928C111.092 95.3507 110.327 95.1297 109.312 95.1297H106.311L106.62 94.7908V100.567V100.552Z" fill="#C77B2F"/>
<path d="M116.095 103.308H121.905V103.927H115.418V94.4961H121.714V95.115H116.109V103.308H116.095ZM116.021 98.8429H121.111V99.4471H116.021V98.8429Z" fill="#C77B2F"/>
<path d="M124.402 103.926V94.5107H124.976L131.684 103.087H131.375V94.5107H132.066V103.926H131.493L124.77 95.3506H125.079V103.926H124.402Z" fill="#C77B2F"/>
<path d="M136.039 94.5107H135.348V103.941H136.039V94.5107Z" fill="#C77B2F"/>
<path d="M139.305 103.926V94.5107H139.893L146.601 103.087H146.292V94.5107H146.969V103.926H146.41L139.687 95.3506H139.996V103.926H139.305Z" fill="#C77B2F"/>
<path d="M152.72 104C152.014 104 151.352 103.882 150.735 103.646C150.117 103.41 149.631 103.101 149.293 102.718L149.602 102.202C149.926 102.541 150.367 102.821 150.926 103.042C151.485 103.263 152.073 103.381 152.706 103.381C153.338 103.381 153.838 103.292 154.25 103.13C154.647 102.968 154.942 102.747 155.133 102.467C155.324 102.187 155.427 101.878 155.427 101.539C155.427 101.141 155.324 100.817 155.104 100.566C154.883 100.331 154.603 100.139 154.25 99.9917C153.897 99.8444 153.515 99.7265 153.103 99.6233C152.691 99.5202 152.279 99.4171 151.853 99.3139C151.426 99.196 151.043 99.0634 150.69 98.8719C150.337 98.695 150.058 98.4445 149.852 98.1351C149.646 97.8257 149.543 97.4278 149.543 96.9268C149.543 96.47 149.661 96.0575 149.896 95.6891C150.131 95.306 150.484 95.0113 150.985 94.7755C151.47 94.5398 152.117 94.4219 152.882 94.4219C153.397 94.4219 153.912 94.4956 154.427 94.6429C154.927 94.7903 155.368 94.9965 155.721 95.2618L155.471 95.807C155.074 95.5417 154.647 95.3354 154.206 95.2028C153.75 95.0702 153.324 95.0113 152.897 95.0113C152.294 95.0113 151.794 95.0997 151.397 95.2618C150.999 95.4386 150.705 95.6596 150.529 95.9396C150.337 96.2195 150.249 96.5437 150.249 96.8974C150.249 97.2952 150.352 97.6194 150.558 97.8699C150.764 98.1056 151.043 98.3119 151.397 98.4445C151.75 98.5919 152.132 98.7098 152.559 98.8129C152.985 98.9161 153.397 99.0192 153.809 99.1223C154.221 99.2402 154.603 99.3728 154.956 99.5644C155.309 99.7412 155.589 99.9917 155.81 100.286C156.03 100.581 156.133 100.994 156.133 101.465C156.133 101.907 156.016 102.32 155.765 102.703C155.53 103.086 155.148 103.396 154.647 103.617C154.147 103.838 153.515 103.955 152.735 103.955" fill="#C77B2F"/>
<path d="M162.122 104C160.96 104 160.033 103.661 159.371 102.983C158.695 102.306 158.371 101.289 158.371 99.9332V94.5107H159.062V99.9038C159.062 101.083 159.327 101.952 159.872 102.512C160.416 103.072 161.166 103.352 162.152 103.352C163.137 103.352 163.887 103.072 164.432 102.512C164.961 101.952 165.241 101.068 165.241 99.9038V94.5107H165.932V99.9332C165.932 101.274 165.594 102.291 164.932 102.983C164.255 103.661 163.328 104 162.166 104" fill="#C77B2F"/>
<path d="M169.109 103.926V94.5107H169.786V103.308H175.214V103.926H169.109Z" fill="#C77B2F"/>
<path d="M175.391 103.941L179.715 94.5107H180.407L184.732 103.941H183.996L179.907 94.9381H180.201L176.126 103.941H175.391ZM176.979 101.289L177.2 100.714H182.834L183.055 101.289H176.965H176.979Z" fill="#C77B2F"/>
</g>
<defs>
<radialGradient id="paint0_radial_1894_3726" cx="0" cy="0" r="1" gradientUnits="userSpaceOnUse" gradientTransform="translate(63.3145 15.493) scale(27.5964 27.643)">
<stop stop-color="#F3A01F"/>
<stop offset="1" stop-color="#C77B2F"/>
</radialGradient>
<clipPath id="clip0_1894_3726">
<rect width="200" height="104" fill="white"/>
</clipPath>
</defs>
</svg>
